<?xml version="1.0" encoding="utf-8"?>
<!-- Generator: Adobe Illustrator 26.0.0, SVG Export Plug-In . SVG Version: 6.00 Build 0)  -->
<svg version="1.1" id="Layer_1" xmlns="http://www.w3.org/2000/svg" xmlns:xlink="http://www.w3.org/1999/xlink" x="0px" y="0px"
	 viewBox="0 0 2560 626" style="enable-background:new 0 0 2560 626;" xml:space="preserve">
<style type="text/css">
	.st0{fill:#404EED;}
	.st1{clip-path:url(#SVGID_00000012435232949352240270000013369732786829759362_);}
	.st2{fill:#5865F2;}
	.st3{fill:#808AFF;}
	.st4{fill:#91FFAD;}
	.st5{fill:#3F99F2;}
	.st6{fill:#FF78B9;}
	.st7{fill:#FFC619;}
	.st8{fill:#2835BD;}
	.st9{fill:none;stroke:#000000;stroke-width:2;stroke-linecap:round;stroke-linejoin:round;}
	.st10{fill:#FFFFFF;}
	.st11{fill:#DE3A93;}
	.st12{fill:none;stroke:#000000;stroke-width:8;stroke-linecap:round;stroke-linejoin:round;}
	.st13{fill:none;stroke:#FFA8D2;stroke-width:3;stroke-linecap:round;stroke-linejoin:round;}
	.st14{fill:none;stroke:#2835BD;stroke-width:8;stroke-linecap:round;stroke-linejoin:round;}
	.st15{fill:#8CD9FF;}
	.st16{fill:#121B80;}
	.st17{fill:#FFE75C;}
	.st18{fill:#29CC7A;}
	.st19{fill:none;stroke:#FFFFFF;stroke-width:2;stroke-linecap:round;stroke-miterlimit:10;}
	.st20{fill:none;stroke:#000000;stroke-width:4;stroke-linecap:round;stroke-miterlimit:10;}
	.st21{fill:#15AD75;}
	.st22{fill:#57F287;}
	.st23{fill:#3442D9;}
	.st24{fill:none;stroke:#000000;stroke-width:2;stroke-linecap:round;stroke-miterlimit:10;}
	.st25{fill:none;stroke:#FFFFFF;stroke-width:3.0059;stroke-linecap:round;stroke-miterlimit:10;}
	.st26{fill:#66BCFF;}
	.st27{fill:#45AAF7;}
	.st28{fill:#C40655;}
	.st29{fill:#A3E1FF;}
	.st30{fill:#FFA8D2;}
	.st31{fill:#287CEB;}
	.st32{fill:none;stroke:#4150F2;stroke-width:2;stroke-linecap:round;stroke-miterlimit:10;}
	.st33{fill:#FF8C19;}
	.st34{fill:none;stroke:#F551A0;stroke-width:2;stroke-linecap:round;stroke-linejoin:round;}
	.st35{fill:#F551A0;}
	.st36{fill:#3F4EEB;}
	.st37{fill:#4B59F2;}
	.st38{fill:#3543DE;}
	.st39{fill:#FFF4B3;}
	.st40{fill:#BAE8FF;}
	.st41{fill:#EB459F;}
	.st42{fill:none;stroke:#D11583;stroke-width:2;stroke-linecap:round;stroke-miterlimit:10;}
	.st43{fill:none;stroke:#FFFFFF;stroke-width:2;stroke-miterlimit:10;}
	.st44{fill:#912869;}
	.st45{fill:#611B46;}
	.st46{fill:#D11583;}
	.st47{fill:none;stroke:#FFC619;stroke-width:2;stroke-linecap:round;stroke-miterlimit:10;}
	.st48{fill:#2A39D4;}
	.st49{fill:#2331B5;}
	.st50{fill:none;stroke:#3442D9;stroke-width:2;stroke-miterlimit:10;}
	.st51{fill:none;stroke:#66BCFF;stroke-width:4;stroke-linecap:round;stroke-miterlimit:10;}
	.st52{fill:none;stroke:#2330BF;stroke-width:2;stroke-miterlimit:10;}
	.st53{fill:none;stroke:#2467D4;stroke-width:2;stroke-linecap:round;stroke-linejoin:round;}
	.st54{fill:none;stroke:#A3D7FF;stroke-width:2;stroke-linecap:round;stroke-linejoin:round;}
	.st55{fill:#ADB4FF;}
	.st56{fill:none;stroke:#15AD75;stroke-width:2;stroke-linecap:round;stroke-linejoin:round;}
	.st57{fill:none;stroke:#FFC619;stroke-width:2;stroke-linecap:round;stroke-linejoin:round;}
	.st58{fill:none;stroke:#BAE8FF;stroke-width:2;stroke-linecap:round;stroke-linejoin:round;}
	.st59{fill:none;stroke:#5865F2;stroke-width:2;stroke-miterlimit:10;}
</style>
<rect class="st0" width="2560" height="626"/>
<g>
	<defs>
		<rect id="SVGID_1_" width="2560" height="626"/>
	</defs>
	<clipPath id="SVGID_00000055698143598935521360000014513117373386413699_">
		<use xlink:href="#SVGID_1_"  style="overflow:visible;"/>
	</clipPath>
	<g style="clip-path:url(#SVGID_00000055698143598935521360000014513117373386413699_);">
		<path class="st2" d="M2560,742c-278.6-220.6-407.3-300-638-159.1c-261.9-168-360.9-111.5-642,63.7
			c-140.5-137.3-194.4-194.3-259.5-108.4C860.2,351.5,772.1,290.4,637.8,453c-14.6,17.6-33.9,30.6-55.6,37.5
			c-21.8,6.9-45,7.4-67.1,1.5C312.9,437.1,118.6,667,0,742H2560z"/>
		<path class="st3" d="M2366.4,595.4c-4-3.5-10.2-5.3-17.6-5.3c-6.3,0.1-12.5,1.1-18.5,3l-4,1.3c0.1-2.9-0.2-5.8-1-8.6
			c-2.2-8.8-8-16-16.7-20.9c-13-7.4-31.3-8.6-48.8-3.3c-3.4,1-6.8,2.3-10,3.8c-1.5-4.9-3.6-9.5-6.2-13.9
			c-15.7-26.4-48.3-41.9-72.7-34.5c-10.4,3.1-18.2,10.2-21.9,19.8c-4.8,12.4-2.7,27.7,5.9,42.1c12.7,21.5,37.1,36.3,59.5,36.4
			c0.2,1.3,0.4,2.6,0.7,3.8c0.6,2.4,1.5,4.7,2.7,6.9h2.3c-1.4-2.3-2.4-4.8-3-7.4c-0.4-1.4-0.6-2.9-0.8-4.4c0-0.2-0.1-0.5-0.3-0.6
			c-0.2-0.2-0.4-0.3-0.7-0.3h-0.7c-21.8,0-45.6-14.5-58-35.4c-8.2-13.9-10.3-28.6-5.8-40.4c3.5-9,10.9-15.6,20.7-18.6
			c23.5-7.1,55.1,8,70.4,33.6c2.7,4.6,4.8,9.5,6.3,14.6c0.1,0.3,0.3,0.5,0.6,0.6c0.3,0.1,0.5,0.1,0.8,0c3.5-1.7,7.1-3.1,10.8-4.2
			c17-5.1,34.6-4,47.2,3.1c8.2,4.7,13.7,11.5,15.8,19.7c0.8,3.1,1.1,6.3,0.8,9.5c0,0.3,0.2,0.7,0.4,0.9c0.1,0.1,0.3,0.2,0.5,0.2
			c0.2,0,0.4,0,0.5-0.1l5.3-1.8c14.6-4.4,27.7-3.7,34.2,1.9c3.5,2.9,4.9,7,4.2,11.8s-4,11.6-9.1,17.3h2.6c4.7-5.6,7.8-11.5,8.5-17
			S2370.4,598.7,2366.4,595.4z"/>
		<path class="st2" d="M41.9,350.3c87.3-44,149-9.9,149-9.9c43.2-13.4,81.2-4,100.9,11.3c12.2,9.6-15.2,7.9-76.7,7.9H44.2
			c-1.3,0-2.5-0.5-3.5-1.4c-0.9-0.9-1.4-2.2-1.4-3.5c0-0.9,0.3-1.8,0.7-2.5C40.5,351.4,41.1,350.7,41.9,350.3z"/>
		<path class="st2" d="M815.5,192.3c22.1-11.2,37.7-2.5,37.7-2.5c10.9-3.4,20.6-1,25.5,2.8c3.1,2.5-3.8,2-19.4,2H816
			c-0.3,0-0.6-0.1-0.8-0.4c-0.2-0.2-0.4-0.5-0.4-0.8c0-0.2,0.1-0.5,0.2-0.7C815.1,192.6,815.3,192.4,815.5,192.3z"/>
		<path class="st2" d="M2422.1,212.5c-0.1-8.7-3.3-17-8.9-23.7c-5.6-6.6-13.4-11.1-21.9-12.6c-8.5-1.5-17.4-0.1-24.9,4.2
			c-7.6,4.2-13.5,11-16.6,19c-2.8-0.6-5.6-0.9-8.5-0.9c-5.7,0-11.4,1.2-16.6,3.6c-5.2,2.4-9.8,6-13.5,10.4H2422.1z"/>
		<path class="st2" d="M413,210.1c-6,0-11.9,1.5-17.2,4.2c-5.3,2.8-9.9,6.8-13.3,11.8c-13.3-6.1-28.2-8.2-42.7-6.1
			c-14.5,2.1-28.1,8.3-39.2,17.9h148.3c-2.1-7.9-6.7-15-13.2-20C429.2,212.9,421.2,210.1,413,210.1z"/>
		<path class="st2" d="M2165.6,283.5c2.5,0,5-0.5,7.3-1.5c2.3-1,4.3-2.6,5.9-4.5c1.6-1.9,2.8-4.2,3.4-6.6c0.6-2.4,0.7-5,0.3-7.4
			c-4.8-25.8-17.9-49.4-37.2-67.2c-19.4-17.8-44-28.7-70.2-31.3c-26.2-2.5-52.4,3.5-74.9,17.2c-22.4,13.7-39.8,34.4-49.4,58.8
			c-8.9-1.9-18.1-2.9-27.2-2.9c-17.6,0-35,3.6-51,10.7c-16.1,7.1-30.5,17.4-42.4,30.4c-0.3,0.4-0.5,0.8-0.6,1.3
			c-0.1,0.5,0,1,0.2,1.4c0.2,0.5,0.5,0.8,0.9,1.1c0.4,0.3,0.9,0.4,1.4,0.4H2165.6z"/>
		<path class="st3" d="M1720.6,625.4h-2c0.8-22.6-3.4-37.3-12.9-44.8s-25.4-8-47.7-1.1c-0.3,0.1-0.6,0-0.8-0.1
			c-0.2-0.2-0.4-0.4-0.5-0.7c-0.6-4-2.3-7.8-4.8-11c-2.5-3.2-5.8-5.7-9.6-7.2c-9.6-3.9-21.5-1.7-31.7,5.8
			c-24.8,18.1-22.1,50.5-22.1,50.8c0,0.2-0.1,0.4-0.2,0.6c-0.1,0.2-0.3,0.3-0.4,0.4c-0.2,0.1-0.4,0.1-0.6,0.1
			c-0.2,0-0.4-0.1-0.5-0.3c-12.9-11.5-21.9-16-29.2-14.7c-7.3,1.3-13.9,9.1-21.4,22.2h-2.3c8.1-14.2,14.7-22.7,23.3-24.2
			c8.6-1.5,16.7,2.9,29.2,13.7c-0.1-8,1.3-34.3,23-50.2c10.8-7.9,23.4-10.2,33.6-6c3.9,1.5,7.4,4,10.1,7.3c2.7,3.2,4.6,7.1,5.4,11.2
			c22.4-6.7,38.2-6.1,48.4,1.9C1717.1,587.1,1721.4,602.1,1720.6,625.4z"/>
		<path class="st4" d="M596.5,275.9c-1.6-1-2.9-2.3-3.9-3.9c-1-1.6-1.7-3.3-1.9-5.1l-1-6.4c0-0.1-0.1-0.3-0.2-0.4
			c-0.1-0.1-0.2-0.1-0.4-0.1c-0.1,0-0.3,0-0.4,0.1c-0.1,0.1-0.2,0.2-0.2,0.4l-1,6.4c-0.3,1.8-0.9,3.6-1.9,5.1
			c-1,1.6-2.3,2.9-3.9,3.9l-0.8,0.5c-0.1,0-0.2,0.1-0.2,0.2s-0.1,0.2-0.1,0.3c0,0.1,0,0.2,0.1,0.3c0.1,0.1,0.1,0.2,0.2,0.2l0.8,0.5
			c1.5,1,2.9,2.4,3.9,3.9c1,1.6,1.7,3.3,1.9,5.2l1,6.3c0,0.1,0.1,0.3,0.2,0.4c0.1,0.1,0.2,0.1,0.4,0.1c0.1,0,0.3,0,0.4-0.1
			c0.1-0.1,0.2-0.2,0.2-0.4l1-6.3c0.3-1.8,0.9-3.6,1.9-5.2c1-1.6,2.3-2.9,3.9-3.9l0.8-0.5c0.1,0,0.2-0.1,0.2-0.2
			c0.1-0.1,0.1-0.2,0.1-0.3c0-0.1,0-0.2-0.1-0.3c-0.1-0.1-0.1-0.2-0.2-0.2L596.5,275.9z"/>
		<path class="st5" d="M1692.1,177.1c-2.7-1.7-4.9-4-6.6-6.6c-1.7-2.7-2.8-5.6-3.3-8.8l-1.6-10.8c-0.1-0.2-0.2-0.5-0.4-0.6
			c-0.2-0.2-0.4-0.3-0.7-0.3c-0.3,0-0.5,0.1-0.7,0.2c-0.2,0.2-0.3,0.4-0.4,0.7l-1.6,10.8c-0.5,3.1-1.6,6.1-3.3,8.8
			c-1.7,2.7-4,4.9-6.7,6.6l-1.4,0.9c-0.2,0.1-0.3,0.2-0.3,0.4c-0.1,0.2-0.1,0.3-0.2,0.5c0,0.2,0,0.4,0.1,0.5
			c0.1,0.2,0.2,0.3,0.4,0.4l1.4,0.9c2.7,1.7,4.9,4,6.7,6.7c1.7,2.7,2.9,5.7,3.3,8.8l1.6,10.8c0,0.3,0.2,0.5,0.4,0.7
			c0.2,0.2,0.5,0.3,0.7,0.2c0.2,0,0.5-0.1,0.7-0.3c0.2-0.2,0.3-0.4,0.4-0.6l1.6-10.8c0.5-3.1,1.6-6.1,3.3-8.8c1.7-2.7,4-5,6.6-6.7
			l1.5-0.9c0.1-0.1,0.2-0.2,0.3-0.4c0.1-0.2,0.1-0.3,0.1-0.5c0-0.2,0-0.3-0.1-0.5c-0.1-0.2-0.2-0.3-0.3-0.4L1692.1,177.1z"/>
		<path class="st0" d="M2183.7,410.1c-2.1-1.4-4-3.2-5.3-5.4c-1.4-2.2-2.3-4.6-2.7-7.1l-1.4-8.7c0-0.2-0.1-0.4-0.2-0.6
			c-0.2-0.2-0.4-0.2-0.6-0.2c-0.2,0-0.4,0.1-0.6,0.2c-0.2,0.1-0.3,0.4-0.3,0.6l-1.3,8.7c-0.4,2.5-1.3,5-2.7,7.1
			c-1.4,2.2-3.2,4-5.4,5.4l-1.1,0.7c-0.1,0.1-0.2,0.2-0.3,0.3c-0.1,0.1-0.1,0.3-0.1,0.4c0,0.1,0,0.3,0.1,0.4
			c0.1,0.1,0.2,0.2,0.3,0.3l1.1,0.7c2.2,1.4,4,3.2,5.4,5.4c1.4,2.2,2.3,4.6,2.7,7.1l1.3,8.7c0,0.2,0.1,0.4,0.3,0.6
			c0.2,0.1,0.4,0.2,0.6,0.2c0.2,0,0.4-0.1,0.6-0.2c0.1-0.1,0.2-0.4,0.2-0.6l1.4-8.7c0.4-2.5,1.3-4.9,2.7-7.1c1.4-2.2,3.2-4,5.3-5.4
			l1.1-0.7c0.1-0.1,0.2-0.2,0.3-0.3c0.1-0.1,0.1-0.3,0.1-0.4c0-0.1,0-0.3-0.1-0.4c-0.1-0.1-0.2-0.2-0.3-0.3L2183.7,410.1z"/>
		<path class="st6" d="M900.9,413.7c-0.8-0.5-1.5-1.2-2-2c-0.5-0.8-0.9-1.7-1-2.7l-0.5-3.2c0-0.1,0-0.2-0.1-0.2
			c-0.1-0.1-0.1-0.1-0.2-0.1c-0.1,0-0.2,0-0.2,0.1c-0.1,0.1-0.1,0.1-0.1,0.2l-0.5,3.2c-0.1,1-0.5,1.9-1,2.7c-0.5,0.8-1.2,1.5-2,2
			l-0.5,0.3c-0.1,0-0.1,0.2-0.1,0.3c0,0.1,0,0.1,0,0.2c0,0.1,0,0.1,0.1,0.1l0.5,0.2c0.8,0.5,1.5,1.2,2,2c0.5,0.8,0.9,1.7,1,2.7
			l0.5,3.3c0,0.1,0,0.2,0.1,0.2c0.1,0.1,0.1,0.1,0.2,0.1c0.1,0,0.2,0,0.2-0.1c0.1-0.1,0.1-0.1,0.1-0.2l0.5-3.3
			c0.2-0.9,0.5-1.8,1-2.7c0.5-0.8,1.2-1.5,2-2l0.5-0.2c0,0,0.1-0.1,0.1-0.1c0-0.1,0-0.1,0-0.2c0-0.1,0-0.3-0.1-0.3L900.9,413.7z"/>
		<path class="st7" d="M943.1,542c-0.4-0.2-0.8-0.6-1-1c-0.3-0.4-0.5-0.8-0.6-1.3l-0.2-1.7H941l-0.3,1.7c-0.1,0.5-0.2,0.9-0.5,1.3
			c-0.3,0.4-0.6,0.7-1,1l-0.2,0.2c0,0-0.1,0-0.1,0c0,0,0,0,0,0.1c0,0,0,0.1,0,0.1c0,0,0,0,0.1,0l0.2,0.2c0.4,0.3,0.7,0.6,1,1
			c0.3,0.4,0.4,0.8,0.5,1.3l0.3,1.7h0.3l0.2-1.7c0.1-0.5,0.3-0.9,0.6-1.3c0.3-0.4,0.6-0.7,1-1l0.2-0.2L943.1,542z"/>
		<path class="st4" d="M1365.8,532.6c-0.9-0.6-1.7-1.4-2.2-2.3c-0.6-0.9-1-1.9-1.2-3l-0.5-3.6c0-0.2-0.2-0.3-0.4-0.3
			c0,0-0.1,0-0.1,0c0,0-0.1,0-0.1,0.1c0,0-0.1,0.1-0.1,0.1c0,0,0,0.1,0,0.1l-0.6,3.6c-0.1,1.1-0.5,2.1-1.1,3
			c-0.6,0.9-1.3,1.7-2.2,2.3l-0.5,0.3c-0.1,0-0.2,0.1-0.2,0.3c0,0.1,0.1,0.2,0.2,0.3l0.5,0.3c0.9,0.6,1.6,1.4,2.2,2.3
			c0.6,0.9,0.9,1.9,1.1,2.9l0.6,3.6c0,0.1,0,0.2,0.1,0.2c0,0.1,0.1,0.1,0.2,0.1c0.2,0,0.4-0.1,0.4-0.3l0.5-3.6c0.2-1,0.6-2,1.2-2.9
			c0.6-0.9,1.3-1.7,2.2-2.3l0.5-0.3c0,0,0.1-0.1,0.1-0.1c0-0.1,0-0.1,0-0.2c0-0.2,0-0.3-0.1-0.3L1365.8,532.6z"/>
		<path class="st6" d="M330.1,509c-1-0.6-1.8-1.5-2.4-2.5c-0.6-1-1-2.1-1.2-3.2l-0.6-4c-0.1-0.2-0.2-0.4-0.4-0.4
			c-0.1,0-0.2,0-0.3,0.1c-0.1,0.1-0.1,0.2-0.1,0.3l-0.6,4c-0.2,1.2-0.6,2.3-1.3,3.2c-0.6,1-1.5,1.8-2.4,2.5l-0.6,0.3
			c-0.1,0.1-0.1,0.2-0.1,0.4c0,0.1,0,0.3,0.1,0.3l0.6,0.4c1,0.6,1.8,1.5,2.5,2.5c0.6,1,1.1,2.1,1.2,3.2l0.6,4c0,0.2,0.2,0.3,0.4,0.3
			s0.3-0.1,0.4-0.3l0.6-4c0.2-1.2,0.6-2.3,1.2-3.2c0.6-1,1.4-1.8,2.4-2.5l0.6-0.4c0.1,0,0.2-0.2,0.2-0.3c0-0.1,0-0.2-0.1-0.2
			c0-0.1-0.1-0.1-0.1-0.2L330.1,509z"/>
	</g>
</g>
<g>
	<path class="st0" d="M540.3,626H267c-11.3-10.1-18.2-21.8-17.1-32.6c2.3-23.3,39-26.7,74.6-9.9l7,3.5c1.2-4.3,3.1-8.3,5.6-12
		c17.8-26.1,58-28.6,84-9.5c2.9,2.1,5.5,4.4,8,7c3.5-4.8,7.5-9.3,11.9-13.3c24.1-21.8,52.7-26.5,63.6-13.1
		c9.6,11.8,2.2,34.5-16,52.4C488.6,598.5,542.4,599.8,540.3,626z"/>
	<path class="st8" d="M878.3,625.5c-22.1-45.6-34.5-100.2-34.5-100.2l-1-5.3l-44.5,5.3v100.2H878.3z"/>
	<path d="M868.7,625.5c-19.4-40-30.2-87.9-30.2-87.9l-2.6-13.4l-37.3,13.4v87.9H868.7z"/>
	<path class="st8" d="M875.7,492.1h-16.2v133.5h16.2V492.1z"/>
	<path d="M875.7,509.4c-2.4,1.1-5.1,1.5-7.8,1.1c-2.6-0.4-5.1-1.5-7.1-3.2l-1.3-1.1v-6l16.2-3.1V509.4z"/>
	<path class="st7" d="M850.9,625.5c11.1-2.7,26.2-17.4,26.2-17.4s5.3,11.4,8.4,17.4h11.2c1.2,0,2.4-0.2,3.5-0.7s2.1-1.2,2.9-2.1
		c0.8-0.9,1.4-2,1.8-3.1c0.4-1.1,0.5-2.4,0.4-3.6c-0.5-4.9-2.8-10.4-6.3-18.4c-5.9-13.3-7.8-20.3-19.3-20.3h-10.4l-24-10.6
		c-15.4,8.1-26,12.8-35.1,18.2c-13.4,8.2-24,24.4-13.6,40.6H850.9z"/>
	<path class="st8" d="M681.9,537.6v87.9h121.8c19.4-40,30.2-87.9,30.2-87.9l2.9-12.3L681.9,537.6z"/>
	<path d="M806.1,540.3l-124.2,11.6v73.6h92.9C783.8,605,806.1,540.3,806.1,540.3z"/>
	<path class="st9" d="M789.6,618.8c10.2-15.8,18.4-33,24.2-50.9"/>
	<path class="st0" d="M775.1,606.6c-5.1,0-10.1,2-13.7,5.7c-3.6,3.6-5.7,8.6-5.7,13.7h38.8c0-5.1-2-10.1-5.7-13.7
		C785.2,608.6,780.3,606.6,775.1,606.6z"/>
	<path class="st8" d="M802.7,625.5c19.4-40,30.3-87.9,30.3-87.9L802.7,625.5z"/>
	<path d="M840.2,625.4c-0.1-0.2-7-17.6-10.6-28.8l-0.2-0.7c-2.4-7.6-4.4-13.7-4.1-19.1l-1.7,0.9c0,5.4,1.9,11.4,4.3,18.7l0.2,0.7
		c3.3,10.2,9.2,25.5,10.4,28.4L840.2,625.4L840.2,625.4z"/>
	<path class="st10" d="M902.7,623.1c0.6-0.6,1.1-1.3,1.4-2.2c0.3-0.8,0.4-1.7,0.2-2.5c-0.7-7.1-4.4-15.6-8.3-24.4l-4-9.4l-1.5,0.6
		c1.3,3.2,2.7,6.3,4,9.4C899.2,605.3,903.7,615.6,902.7,623.1z"/>
	<path class="st7" d="M869.3,597c-1.9,7.8-4.6,17.5-8.1,28.5h-21c0,0-6.8-17.5-10.5-28.8s-6.4-19.4-2.7-26.9
		c3.7-7.5,9.5-8.1,18.3-3.1l-1.3,14.2l6.7,19l3.1-10.1C860.4,585.5,868.7,587.9,869.3,597z"/>
	<path class="st10" d="M842.2,619.2l-1.7-4.9c-3.7-10.9-6.9-20.2-9.1-28.7c-1.8-7-3.3-15.3-2.4-19c-0.7,0.9-1.4,1.9-1.9,2.9
		c0,5.4,1.8,12.9,2.7,16.5c2.3,8.6,5.5,17.9,9.2,28.8l1.7,5c0.7,2.1,1.4,4,2.1,5.7h1.8C843.8,623.7,843.1,621.7,842.2,619.2z"/>
	<path class="st10" d="M857.4,625.5c2.3-7.7,5.6-19,9.9-33.6c0-0.1,0-0.2,0-0.3c0-0.1,0-0.2-0.1-0.3c-0.1-0.1-0.1-0.2-0.2-0.2
		c-0.1-0.1-0.2-0.1-0.3-0.1c-0.1,0-0.2-0.1-0.3-0.1c-0.1,0-0.2,0-0.3,0.1c-0.1,0-0.2,0.1-0.2,0.2c-0.1,0.1-0.1,0.2-0.1,0.3
		c-4.4,14.9-7.7,26.4-10,34.1H857.4z"/>
	<path class="st11" d="M865.5,535.5c-12.6-1.8-17.4-0.9-22.1,9.7s-2.3,19.6,5.5,31s27,9.3,34.3,6.6c7.3-2.7,13.7-10,17.3-20.3
		c3.6-10.3,2.5-21.6-2.9-27.8c-5.4-6.2-14.5-11.3-22.7-8.7S865.5,535.5,865.5,535.5z"/>
	<path class="st9" d="M871.6,550.4l-3.8-1"/>
	<path class="st9" d="M871.8,552l-3.9,0.5"/>
	<path class="st9" d="M899.4,550.1l3-2"/>
	<path class="st9" d="M899.2,551.8l3.1-0.5"/>
	<path d="M861.4,525.3c-2.1,0-3.7,1.4-3.8,2.4c-0.1,1,3.7,4.2,8.6,10.3l1.3-0.5C862.9,525.7,863.5,525.2,861.4,525.3z"/>
	<path class="st9" d="M871.1,534.6c-3.8,2.4-8.2,5.7-8.2,5.7"/>
	<path class="st6" d="M869.3,597c1.2-5.1,2.1-9.4,2.6-12.7c1.4-8.6-1.2-10-5-11.1s-6.5-3.2-8.3-9.7s-2.9-6.4-5.1-5.3
		c-2.4,1.3-4.5,3.1-6,5.4c-1.2,2.1-1,4.5,1.3,10.4c1.5,3.7,4,6.9,7.1,9.4l-2.1,6.4C861.5,589.5,866.1,590.5,869.3,597z"/>
	<path class="st6" d="M881.8,593c-1.1-4.9-2.5-10.2,0-11.6s10.2-5,14.4-14.1c0.1-0.2,0.2-0.4,0.4-0.6c0.2-0.2,0.4-0.3,0.6-0.4
		c0.2-0.1,0.5-0.1,0.7-0.1c0.2,0,0.5,0.1,0.7,0.2h0.2c0.2,0.1,0.3,0.2,0.5,0.3c0.1,0.1,0.3,0.3,0.3,0.5c0.1,0.2,0.1,0.4,0.1,0.6
		c0,0.2,0,0.4-0.1,0.6c-2,4.4-4.5,8.5-7.3,12.4c0.6,2.3,1.3,4.7,2.2,6.9C889.9,589.8,881.8,593,881.8,593z"/>
	<path d="M857.2,577c0.1-0.2,0.2-0.4,0.2-0.6c0-0.2-0.1-0.4-0.2-0.6c-1.5-1.6-2.8-3.3-4-5.1c-1.9-3.3-3.7-9.2-2.4-10.7l-1.4,1.3
		c-0.2,0.2-0.4,0.5-0.5,0.8c-0.1,0.3-0.1,0.6-0.1,1c0.5,2.9,1.5,5.8,3,8.4c1.2,2,2.6,3.8,4.2,5.5l0.6,0.2L857.2,577z"/>
	<path class="st9" d="M856.7,583.6c2.9-0.4,5.8-0.5,8.7-0.4"/>
	<path class="st9" d="M847.2,610.8l6.3-20"/>
	<path class="st9" d="M850.7,599.9l-6.1-17.5"/>
	<path class="st9" d="M881.9,593.8c1.8,9.7,5.7,23.3,5.7,23.3"/>
	<path class="st0" d="M800.8,600.1c-3.5,0-6.8,1.4-9.3,3.8c-2.5,2.5-3.8,5.8-3.8,9.3V626h26.1v-12.8c0-3.5-1.4-6.8-3.8-9.2
		C807.6,601.5,804.3,600.1,800.8,600.1z"/>
	<path class="st0" d="M813.8,613.2c-1.7,0-3.4,0.3-4.9,0.9c-1.6,0.6-3,1.6-4.2,2.8c-1.2,1.2-2.2,2.6-2.8,4.2c-0.7,1.6-1,3.2-1,4.9
		h25.7c0-3.4-1.3-6.7-3.7-9.1C820.5,614.5,817.2,613.2,813.8,613.2z"/>
	<path class="st12" d="M853.9,501.6l19.7-3.1"/>
	<path class="st13" d="M895.1,538.2l0.7,1.1"/>
	<path class="st13" d="M885.2,530.9c2.6,0.8,5,2.1,7,3.9"/>
	<path class="st14" d="M873.1,498.6c16.7-2.8,43.5-9,57.4-12.7"/>
	<path class="st9" d="M925.5,488.6l5.3,24.6"/>
	<path class="st15" d="M935.8,512.4v-3.2h-20.6v3.3c0,0.5-0.2,0.9-0.4,1.3c-1,1.5-1.6,3.3-1.6,5.1V532c0,2.2,0.8,4.4,2.3,6
		c1.5,1.7,3.5,2.8,5.6,3.1c3,0.4,5.9,0.4,8.9,0c2.2-0.3,4.1-1.4,5.5-3.1c1.4-1.7,2.2-3.8,2.2-6v-13.1c0-1.8-0.5-3.6-1.5-5.1
		C935.9,513.4,935.8,512.9,935.8,512.4z"/>
	<path class="st2" d="M933.9,513.8v-4.1H917v4.1c0,0.8-0.2,1.6-0.6,2.3c-0.8,1.2-1.2,2.6-1.2,4v11.2c0,1.9,0.7,3.7,1.9,5.1
		c1.2,1.4,2.9,2.3,4.7,2.6c2.4,0.3,4.8,0.3,7.2,0c1.9-0.2,3.6-1.2,4.8-2.6c1.2-1.4,1.9-3.2,1.9-5.1v-11.2c0-1.4-0.4-2.8-1.1-4
		C934.2,515.4,933.9,514.6,933.9,513.8z"/>
	<path class="st15" d="M915.2,510.8c0,1.4,4.6,2.5,10.3,2.5c5.7,0,10.3-1.1,10.3-2.5l-10.3-4.1L915.2,510.8z"/>
	<path class="st9" d="M914.6,510c-0.1,0.2-0.1,0.3-0.2,0.5c0,0.2,0,0.3,0,0.5c0,0.2,0.1,0.3,0.2,0.5c0.1,0.1,0.2,0.2,0.4,0.3
		c1.7,1,5.7,1.7,10.4,1.7c4.7,0,8.7-0.7,10.4-1.7c0.3-0.2,0.5-0.5,0.6-0.8s0.1-0.7-0.1-1l-10.9-21.4L914.6,510z"/>
	<path class="st10" d="M924.5,532.1l-3.1-0.7c-0.3-0.1-0.5-0.3-0.7-0.6c-0.1-0.3-0.2-0.6-0.1-0.9c0.1-0.3,0.3-0.5,0.6-0.7
		c0.2-0.1,0.3-0.1,0.5-0.2c0.2,0,0.3,0,0.5,0c0.2,0,0.3,0.1,0.5,0.2c0.1,0.1,0.2,0.2,0.3,0.4L924.5,532.1z"/>
	<path class="st10" d="M924.5,532.1l-0.2-3.1c0-0.1,0-0.3,0.1-0.4c0.1-0.1,0.1-0.3,0.2-0.4c0.1-0.1,0.2-0.2,0.3-0.3
		c0.1-0.1,0.3-0.1,0.4-0.1c0.2,0,0.3,0,0.5,0.1c0.1,0.1,0.3,0.2,0.4,0.3c0.3,0.2,0.4,0.5,0.5,0.9c0,0.3-0.1,0.7-0.3,0.9L924.5,532.1
		z"/>
	<path class="st16" d="M925.1,535c-1.7,0.5-3.3,0-3.7-1.1s0.2-1.7,1.8-2.1c0.7-0.2,1.4-0.4,2-0.8c1.3-0.7,2,0.1,2.3,1
		C927.8,532.9,926.8,534.4,925.1,535z"/>
	<path class="st17" d="M922,532l-1.2,0c-0.8,0-1.5,0.6-1.5,1.5l0,0.1c0,0.8,0.6,1.5,1.5,1.5l1.2,0c0.8,0,1.5-0.6,1.5-1.5l0-0.1
		C923.5,532.7,922.9,532,922,532z"/>
	<path class="st10" d="M927.7,520.3l2.8-1.5c0.2-0.2,0.4-0.4,0.5-0.7c0-0.2,0.1-0.3,0-0.5c0-0.2-0.1-0.3-0.1-0.4
		c-0.1-0.1-0.2-0.3-0.3-0.4c-0.1-0.1-0.3-0.2-0.4-0.2c-0.3-0.1-0.7,0-1,0.1c-0.3,0.2-0.5,0.5-0.6,0.8L927.7,520.3z"/>
	<path class="st10" d="M927.7,520.3l-0.5-3.1c-0.1-0.3-0.3-0.6-0.5-0.8c-0.3-0.1-0.6-0.2-0.9-0.1s-0.6,0.2-0.8,0.4
		c-0.2,0.3-0.3,0.7-0.2,1c0.1,0.4,0.3,0.7,0.6,0.9L927.7,520.3z"/>
	<path class="st16" d="M928.5,519.9c1.4,1,2.1,2.6,1.4,3.5c-0.7,0.9-1.5,1-2.8-0.1c-0.5-0.4-1.2-0.8-1.8-1.1
		c-0.2-0.1-0.5-0.2-0.7-0.4c-0.2-0.2-0.3-0.4-0.4-0.7c-0.1-0.2-0.1-0.5,0-0.7c0.1-0.2,0.2-0.5,0.4-0.6
		C925.3,518.8,927.1,518.9,928.5,519.9z"/>
	<path class="st17" d="M927.8,523.5l0.7,1c0.5,0.7,1.4,0.8,2.1,0.3l0.1-0.1c0.7-0.5,0.8-1.4,0.3-2.1l-0.7-1
		c-0.5-0.7-1.4-0.8-2.1-0.3l-0.1,0.1C927.5,521.9,927.3,522.8,927.8,523.5z"/>
	<path class="st15" d="M925.5,511.7c5.7,0,10.3-1.1,10.3-2.5c0-1.4-4.6-2.5-10.3-2.5c-5.7,0-10.3,1.1-10.3,2.5
		C915.2,510.6,919.8,511.7,925.5,511.7z"/>
	<path class="st15" d="M935.9,509.2h-20.7v1.4h20.7V509.2z"/>
	<path class="st10" d="M929.7,510c-0.5,0.1-0.9,0.4-0.9,0.9c0,0.1,0,0.2,0.1,0.3c0.1,0.1,0.1,0.2,0.2,0.2c0.1,0.1,0.2,0.1,0.3,0.1
		c0.1,0,0.2,0,0.3,0l1.7-0.3c0.2,0,0.4-0.1,0.6-0.3c0.2-0.2,0.3-0.4,0.3-0.6c0-0.1,0-0.2-0.1-0.3c-0.1-0.1-0.1-0.2-0.2-0.2
		c-0.1-0.1-0.2-0.1-0.3-0.1c-0.1,0-0.2,0-0.3,0L929.7,510z"/>
	<path class="st9" d="M925.5,488.6l-5.3,24.6"/>
	<path class="st9" d="M926.3,490.3l-2.6-5.6"/>
	<path class="st9" d="M925.7,490.6l0.3-6.4"/>
	<path class="st10" d="M897.6,555.5c3.3-3.8,2.8-6.1,1.7-6.8c-1.1-0.7-2.8,0.6-5.8,5.4C890.5,558.9,893,560.7,897.6,555.5z"/>
	<path class="st10" d="M881.9,555.5c-2.2-4.6-6-7.9-9.5-7.4s-2.1,5.7,2.5,9.2S884.3,560.5,881.9,555.5z"/>
	<path d="M899.1,551.3c0.2-0.9,0.1-1.8-0.2-2.7c-0.9-0.1-2.3,0.9-4.2,3.6c0.2,1.4,0.9,2.4,1.7,2.5S898.9,553.4,899.1,551.3z"/>
	<path d="M882,555.8c0-0.1-0.1-0.2-0.1-0.3c-1.1-2.3-2.7-4.3-4.7-5.9c-0.6,1.1-0.8,2.4-0.7,3.7c0.2,2.7,1.6,4.8,3.2,4.7
		c0.6-0.1,1.1-0.3,1.5-0.7C881.6,556.9,881.9,556.4,882,555.8z"/>
	<path class="st9" d="M883.9,565.8c6.3-1.6,8.8-2.3,9.8-0.9s0.1,3-1.4,4.6c1.6,3.5,1.1,5.1-2,5.1c-2.3-0.2-4.5-0.8-6.4-2"/>
	<path class="st9" d="M890.6,567.8c-0.4,1-0.9,2-1.6,2.9"/>
	<path d="M462.5,625.5h10.4l7.8-23.8h-20.5L462.5,625.5z"/>
	<path class="st18" d="M593.6,625.5h-55.7c-35.8,0-56.4-10.3-71.8-22l-3.6,22h-9.1c0-105.6,13.6-205.8,13.6-205.8
		c2-11.3,23.5-16.4,50.2-7.1c26.7,9.3,33.8,21.2,32.8,32s-9.5,83.6-12.7,117.7l5.7,6.2c2,2,3.4,4.5,4.3,7.2c0.8,2.7,1,5.6,0.5,8.4
		l-0.6,3.3C569.2,601.6,603.2,594.5,593.6,625.5z"/>
	<path class="st19" d="M478.1,439.1c-0.9,12.6-1.1,17.8-1.1,19.8c0,0.3,0.1,0.6,0.2,0.9c0.1,0.3,0.3,0.6,0.5,0.8
		c5.9,5.9,12.9,7.8,18.4,8.5c0.3,0,0.6,0,0.9-0.1c0.3-0.1,0.6-0.2,0.8-0.5c0.2-0.2,0.4-0.5,0.6-0.8c0.1-0.3,0.2-0.6,0.2-0.9l1.1-16"
		/>
	<path class="st20" d="M473.7,556.4c-3.3,0.1-6.6-0.7-9.5-2.3"/>
	<path class="st20" d="M465.4,561c4.3,0.6,9.6-1.3,9.6-1.3"/>
	<path class="st21" d="M524.7,489.2c-0.9,9-1.1,18.9,3.4,21.5c2.8,1.7,8.5,1.5,14.8-1.5c2.5-24.9,5.2-46.3,6.5-58.4l-29.8,4.9
		C516.7,481.4,516.2,489.8,524.7,489.2z"/>
	<path d="M545.4,452.8c4.8-10-8-26.1-28.6-35.9c-20.6-9.8-41.2-9.7-45.9,0.4c-4.8,10,8,26.1,28.6,35.9
		C520.1,463,540.7,462.8,545.4,452.8z"/>
	<path class="st22" d="M466.1,603.5c15.4,11.7,36,22,71.8,22h55.7c0.9-2.9,1.5-5.9,1.6-8.9c-59.1,0-93.4-1.2-141-36.8
		c-0.4,14.2-0.7,29.5-0.8,45.7h9.1L466.1,603.5z"/>
	<path class="st10" d="M470.1,553.2c2.6,10.1,9.7,17.8,15.9,17.2s6.4-6.4,4-16.1c-0.6-2.6-1.1-5.1-1.6-7.7
		c-1.8-9.2-6.3-13.2-11.8-12.7S467.4,543.2,470.1,553.2z"/>
	<path class="st10" d="M470.1,553.2c2.6,10.1,9.7,17.8,15.9,17.2s6.4-6.4,4-16.1c-0.6-2.6-1.1-5.1-1.6-7.7
		c-1.8-9.2-6.3-13.2-11.8-12.7S467.4,543.2,470.1,553.2z"/>
	<path d="M486.4,553.3c1,4.4,0.3,8.3-1.4,8.6c-1.7,0.3-3.8-2-4.5-7.5s-0.3-8.5,1.4-8.5C483.6,545.9,485.5,548.8,486.4,553.3z"/>
	<path class="st21" d="M544.3,586.6c0.1,0,0.3,0,0.4-0.1c0.1-0.1,0.3-0.2,0.3-0.3c0.1-0.1,0.1-0.3,0.2-0.4c0-0.1,0-0.3,0-0.4
		c-2-10-8.1-11.4-19.4-8.8c-11.3,2.6-15.8,3.6-18,4.4c-2.2,0.8-1.2,1.3,13.7,3.6C529,585.9,536.7,586.5,544.3,586.6z"/>
	<path d="M594.7,611.5c-11.1,0.1-29.6-0.1-47.8-1.3c-33.8-2.3-64.9-14.9-92.5-37.4v1.8c27.6,22.3,58.6,34.8,92.4,37
		c17,1.2,34.2,1.4,45.5,1.4h2.7L594.7,611.5z"/>
	<path class="st2" d="M488.4,546.7c-1.8-9.2-6.3-13.2-11.8-12.7s-7,4.6-7.4,10.5C475.4,546.5,481.9,547.2,488.4,546.7z"/>
	<path d="M630.3,466.4L597,485c0.6,0.5,1.3,0.9,2.1,1c0.8,0.1,1.6,0,2.2-0.4c1.9-0.8,6.5-5,8.3-6s6.9-3,9.4-4c3.1-1.2,6-2.9,8.6-4.9
		C629.8,468.9,630.6,468.2,630.3,466.4z"/>
	<path class="st23" d="M548.1,397.3c-6.1-3.8-6.4-3.7-9.8-9.8c-3.4-6.1-7.7-9.1-12.7-9.8l6.2,44.9c13,3.8,21-2.8,22.8-9.3
		S554.3,401.1,548.1,397.3z"/>
	<path class="st23" d="M542,403.2c-1.7-7.3-6.2-15.8-11.5-22.2c-1.9-2.3-3.2-5-3.9-7.9c-0.7-2.9-0.7-5.9-0.1-8.9l2.2-10
		c1.5-6.9,0.7-14.2-2.3-20.6c-3.1-6.4-8.2-11.6-14.6-14.8c-3.7-1.8-7.6-2.9-11.7-3.1c-7.7-0.6-15.2,1.9-21.1,6.8
		c-5.9,4.9-9.6,12-10.4,19.6c-0.2,1.3-0.2,2.6-0.2,3.9v4.3l0.2,18c0.2,8.1-1.5,16.1-5,23.4c-1.5,2.9-2.6,5.9-3.3,9.1l48.9,52
		C532.5,448.9,547.1,426.4,542,403.2z"/>
	<path class="st24" d="M509.3,452.8c23.2-3.9,37.8-26.4,32.7-49.6c-1.6-6.9-5.7-14.9-10.6-21.1"/>
	<path class="st23" d="M526.4,404.7c4.6-7.6,6.4-6.6,14.6-4.4c6.6,1.7,14.2,15.2,4.1,22C535,429.1,514.4,425,526.4,404.7z"/>
	<path d="M503.6,382.3c0.9-0.7,1.1-2.1,0.3-3c-0.7-1-2.1-1.2-3-0.5c-0.9,0.7-1.1,2.1-0.3,3C501.3,382.8,502.7,383,503.6,382.3z"/>
	<path d="M516.2,383.1c0.9-0.7,1.1-2.1,0.3-3c-0.7-1-2.1-1.2-3-0.5c-0.9,0.7-1.1,2.1-0.3,3C513.9,383.6,515.3,383.8,516.2,383.1z"/>
	<path class="st25" d="M514.9,381.5c10.7,8.8,6.3,15.1,14.9,28.1"/>
	<path class="st7" d="M502.8,401.2c6.6-4.6,8.6-5.9,11.1-5.8l6.5,0.6l-1.7,26.4l-16.5-0.5L502.8,401.2z"/>
	<path d="M534.8,394.5c0.1-0.3,0.2-0.7,0.1-1.1c0-0.4-0.2-0.7-0.4-1c-0.2-0.3-0.5-0.6-0.8-0.8c-0.3-0.2-0.7-0.3-1.1-0.3l-11-1.6
		c-0.8-0.1-1.6,0.1-2.3,0.5c-0.7,0.4-1.2,1.1-1.4,1.9l-6.2,23c-0.1,0.4-0.2,0.7-0.1,1.1c0,0.4,0.2,0.7,0.4,1
		c0.2,0.3,0.5,0.6,0.8,0.8c0.3,0.2,0.7,0.3,1,0.3l11,1.6c0.8,0.1,1.6-0.1,2.3-0.5c0.7-0.4,1.2-1.1,1.4-1.9L534.8,394.5z"/>
	<path d="M534.3,392.2l1.2,1.4l-3.3,0.3L534.3,392.2z"/>
	<path class="st7" d="M539.7,407.4c-1.4-2.3-2.7-5.2-6.5-5.8l-0.5,4.8L539.7,407.4z"/>
	<path class="st10" d="M535.9,395.8c0.1-0.3,0.1-0.7,0.1-1.1c-0.1-0.4-0.2-0.7-0.4-1s-0.5-0.6-0.8-0.8c-0.3-0.2-0.7-0.3-1-0.4
		l-11.1-1.6c-0.8-0.1-1.6,0.1-2.3,0.6c-0.7,0.4-1.2,1.1-1.4,1.8l-6.2,23c-0.1,0.3-0.1,0.7-0.1,1.1c0.1,0.4,0.2,0.7,0.4,1
		s0.5,0.6,0.8,0.8c0.3,0.2,0.7,0.3,1,0.4l11.1,1.5c0.8,0.1,1.6,0,2.2-0.5c0.7-0.4,1.1-1.1,1.4-1.8L535.9,395.8z"/>
	<path class="st7" d="M532.5,404.9l4.5,0.7c0.9,0.1,1.7,0.6,2.3,1.3c0.6,0.7,0.9,1.6,0.8,2.5c0,0.5-0.1,0.9-0.4,1.4
		c-0.2,0.4-0.5,0.8-0.9,1.1c-0.4,0.3-0.8,0.5-1.3,0.6c-0.5,0.1-0.9,0.2-1.4,0.1l-3.3-0.5c-1-0.1-2-0.6-2.7-1.4
		c-0.7-0.7-1.2-1.7-1.3-2.7c0-0.5,0.1-0.9,0.2-1.3s0.5-0.8,0.8-1.1c0.3-0.3,0.8-0.5,1.2-0.6C531.6,404.8,532.1,404.8,532.5,404.9z"
		/>
	<path class="st7" d="M531,411.6l3.1,0.5c0.5,0.1,1,0.2,1.5,0.5c0.4,0.3,0.8,0.6,1.1,1.1c0.3,0.4,0.5,0.9,0.5,1.4
		c0.1,0.5,0,1-0.1,1.5c-0.2,0.8-0.7,1.5-1.4,1.9c-0.7,0.4-1.6,0.6-2.4,0.5l-1.9-0.3c-1-0.1-2-0.6-2.7-1.4c-0.7-0.7-1.2-1.7-1.4-2.7
		c0-0.5,0.1-0.9,0.2-1.4c0.2-0.4,0.5-0.8,0.8-1.1c0.4-0.3,0.8-0.5,1.2-0.6C530.1,411.5,530.6,411.5,531,411.6z"/>
	<path class="st7" d="M521.3,423l-10.8-1.5l0.5-4.4l10.8,1.6L521.3,423z"/>
	<path class="st7" d="M523.9,405.5l-6.8-1c-0.3,0-0.6-0.2-0.9-0.4c-0.2-0.2-0.4-0.5-0.5-0.8l-0.6-1.8l-0.5-3.7l-3.7,13l11,1.6
		c1,0.1,2.1-0.1,3-0.6c0.9-0.5,1.6-1.3,1.9-2.3c0.1-0.5,0.1-0.9,0-1.4c-0.1-0.5-0.3-0.9-0.6-1.3c-0.3-0.4-0.6-0.7-1-0.9
		C524.8,405.7,524.4,405.5,523.9,405.5z"/>
	<path class="st7" d="M521.7,412.3l-10.8-1.5l0.5,7.2l8.3,1.2c1,0.2,2-0.1,2.9-0.6c0.9-0.5,1.5-1.3,1.9-2.3c0.1-0.4,0.2-0.9,0.1-1.4
		c-0.1-0.5-0.3-0.9-0.5-1.3c-0.3-0.4-0.6-0.7-1-0.9C522.6,412.5,522.2,412.3,521.7,412.3z"/>
	<path class="st26" d="M598.3,456.4c0.3-10.8-8.6-12.5-14.7-16.3s-13.3-11.8-20.8-17.2c-7.5-5.4-14-5.3-26.7-1.4l14.5,28.2
		c8.2,4.2,10,8.8,14.4,15c4.4,6.2,10.3,8.6,16.2,7.5c3.1,5.1,3.7,6.3,8.2,4.7c4.5-1.6,11.9-5,13.9-10.9
		C605.3,460.1,602.4,459.1,598.3,456.4z"/>
	<path class="st27" d="M590.8,473.5c-3.8-0.9-5.3-3-7.7-6.3l-2.1-2.8c-10.3-2.1-14.5-7.6-16.8-11.6c-1.1-1.9-3.1-3.4-5-4.8
		c-1.9-1.4-3.8-2.9-4.9-4.7c-0.8-1.3-1.6-2.8-2.2-4.2c-0.8-2.1-1.5-3.5-2.8-3.9c-1.3-0.4-3.5,0.4-5.6,1.3c-1.9,0.9-3.9,1.6-6,2
		c-0.2,0-0.3,0-0.5-0.1c-0.1-0.1-0.3-0.2-0.3-0.4c0-0.2,0.1-0.4,0.2-0.5c0.1-0.1,0.3-0.2,0.4-0.3c2-0.3,3.8-1,5.6-1.9
		c2.4-1,4.4-1.9,6.5-1.3c2.1,0.6,2.8,2.4,3.7,4.6c0.9,2.2,1.2,2.6,2,4c1.3,1.7,2.9,3.1,4.7,4.3c2,1.6,4.1,3.2,5.3,5.3
		c2.3,4.1,6.3,9,16.2,11h0.2l0.2,0.2c0.9,1.1,1.6,2.2,2.3,3.1c2.2,3.1,3.6,5,6.8,5.8c0.1,0,0.2,0,0.3,0c0.1,0,0.1,0.1,0.2,0.2
		c0.1,0.1,0.1,0.2,0.1,0.2c0,0.1,0,0.2,0,0.3c0,0.1,0,0.2,0,0.3c0,0.1-0.1,0.1-0.2,0.2c-0.1,0-0.2,0.1-0.2,0.1
		S590.9,473.5,590.8,473.5z"/>
	<path class="st24" d="M550,433.1c-1.3,4.3-2.2,8.7-2.6,13.2"/>
	<path class="st15" d="M555.9,485.1c-9.1,8.2-16.8,5.9-20.4,5.5c-3.6-0.4-3.2-3-3.5-5.2c-0.3-2.2-0.5-5.5-0.5-5.5
		c-9.1-0.6-10.2-6.8-10.4-12.3s-1.6-6.3-2.3-10.2c-11-2-21.3-6.4-30.3-13.1c-9-6.6-16.3-15.2-21.4-25.1l9.5-6.9l21.2,13.8
		c14.3-5.3,22.2-8,29.9-8.5c7.7-0.5,15.3,2.4,17.8,13.1s2.8,14,5.1,19.1c0.6,1.3,1.6,3.1,2.6,5c2.8,5.7,5.7,13.7,0,22.4
		C553.9,479.9,554.8,482.5,555.9,485.1z"/>
	<path d="M482.6,439.4c-0.3-7.1,2.4-12.1,7.3-12.9l-12.4-8.6l-9,3.9C470.8,428.2,476.7,435.2,482.6,439.4z"/>
	<path class="st26" d="M538.5,487l0.2-1.3c-1.8-0.3-1.9-1.6-2.4-7.7v-0.8l-0.4-0.2c-4-1-6.7-3.4-6.9-11.5c0-3.8-0.8-7.7-2.3-11.2
		c-0.4-0.8-0.7-1.7-0.9-2.6c-0.2-0.8-0.5-1.6-0.7-2.3c-1.1-2.8-1.4-5.9-0.9-8.9c0.4-3.1,0.1-4.8-0.9-5.7c-1-0.9-3.5-0.6-7.2,0.6
		h-0.5c-5.9,1.9-17.7,5.8-29.6,6.8l1.5,1.1c11.6-1.1,22.8-4.8,28.5-6.6l0.5-0.2c3-1,5.1-1.5,6-0.8c0.9,0.7,0.7,2,0.4,4.5
		c-0.5,3.2-0.2,6.5,1,9.5c0.3,0.7,0.5,1.5,0.6,2.2c0.3,0.9,0.6,1.8,1,2.7c1.4,3.4,2.2,7.1,2.2,10.8c0.2,7.5,2.3,11.2,7.4,12.7
		C535.5,484.2,535.7,486.5,538.5,487z"/>
	<path class="st23" d="M503,399.8c-2.9-2.5-5.1-2.3-8.6-0.8c-3.7-3.4-8.5-3.9-13.5-2.2c-5,1.7-12.7,4-17.2,5.2
		c-0.3,0.1-0.5,0.1-0.8,0.1c-0.3-0.1-0.5-0.2-0.7-0.4c-0.2-0.2-0.3-0.4-0.4-0.7c-0.1-0.3,0-0.5,0.1-0.8l3.3-12
		c-10.7,8-14.2,25.1-10.8,34.4s18.2,9.2,22.9,6.6c4.7-2.6,6.3-3.4,11.7-2.4s9.6,1.7,16.7-3.7l4.2-1.4
		C511.5,412.6,510.1,406,503,399.8z"/>
	<path class="st24" d="M503,399.8c-2.9-2.5-5.1-2.3-8.6-0.8c-3.7-3.4-8.5-3.9-13.5-2.2c-5,1.7-12.7,4-17.2,5.2"/>
	<path class="st24" d="M494.4,399c3,2.3,5.5,5.2,7.3,8.5c1.8,3.3,3,6.9,3.4,10.7"/>
	<path class="st18" d="M524.7,396c0-0.1,0.1-0.3,0-0.4c0-0.1-0.1-0.3-0.1-0.4c-0.1-0.1-0.2-0.2-0.3-0.3c-0.1-0.1-0.3-0.1-0.4-0.2h-1
		c-0.3-0.1-0.6,0-0.8,0.1c-0.2,0.1-0.4,0.4-0.5,0.7l-0.9,3.3c0,0.1-0.1,0.3,0,0.5s0.1,0.3,0.2,0.4c0.1,0.1,0.2,0.2,0.3,0.3
		c0.1,0.1,0.3,0.1,0.4,0.1h1c0.3,0,0.5,0,0.8-0.2c0.2-0.1,0.4-0.4,0.5-0.6L524.7,396z"/>
	<path class="st7" d="M508.7,376.8c0.8-1.6,1.9-2.9,3.3-3.9c1.4-1,3-1.7,4.8-2c0.2,0,0.3-0.2,0.2-0.3c-1.3-4.8-0.7-7.5,1-11
		c0,0,0-0.1,0-0.1c0,0,0-0.1,0-0.1c0,0,0-0.1,0-0.1c0,0,0,0-0.1,0c-5.6-2.4-7.7-6.4-8.3-9.4c-0.1-0.2-0.4-0.3-0.5-0.1
		c-2.5,5-5.9,5.2-8.8,4.8c-0.2,0-0.3,0.2-0.2,0.3c2.9,5.6,0.8,9.6-2.1,12.4c0,0,0,0.1,0,0.1c0,0,0,0.1,0,0.1c0,0,0,0.1,0.1,0.1
		c0,0,0.1,0,0.1,0.1c5.6,1,8.6,4.7,10,9C508.3,376.9,508.6,377,508.7,376.8z"/>
	<path class="st24" d="M521.7,412.3l-5.7-0.8"/>
	<path class="st24" d="M532.1,412l3.2,0.5"/>
	<path class="st24" d="M509.4,349.7c2.5-5.6,2.3-9.5,1.6-11.7"/>
	<path class="st24" d="M517.4,359.5c1.6,0.2,3.2,0.1,4.7-0.3c1.5-0.4,2.9-1.2,4.1-2.2"/>
	<path class="st24" d="M508.7,376.8c0,0.7-0.1,1.5-0.3,2.2"/>
	<path class="st24" d="M498.5,367.4c-3.7,2.6-9.3,2.2-13.2,1"/>
	<path class="st24" d="M500.3,354.6c-1.4-2.9-4-6.2-6.4-7.3"/>
	<path class="st24" d="M517,370.6c1.3,0.7,2.7,1.2,4.1,1.5"/>
	<path class="st28" d="M506.3,359.9c1.7,6.6,3.9,6.2,4.9,4.2s1.7-4.5,3.3-4.3c1.6,0.2,1.2,3-0.7,7c-1.9,4-5,4.9-7.9,1.4
		s-3-6.9-3.1-9.3C502.7,356.5,505.2,355.9,506.3,359.9z"/>
	<path class="st25" d="M502.3,380.7c1.2,13.8-5.8,20.4-8,34.1"/>
	<path class="st24" d="M518,457.5c-1.8-5.9-2.6-16.7,2.3-26.2"/>
	<path class="st24" d="M516.9,442.8c-1.1-2.2-1.7-4.6-1.6-7.1"/>
	<path class="st24" d="M467.6,400.9l-7.4,2.4"/>
	<path class="st24" d="M541.1,400l5,1.4"/>
	<path class="st7" d="M630.3,466.3c-0.5,0.8-1.2,1.5-1.9,2.2c-3.2,3.2-10.5,6.8-14.4,8.3c-3,0.9-5.7,2.5-8,4.6
		c-2.9,2.3-6.5,5.4-9,3.6c-3.1-2.9-6-6.1-8.6-9.5c-0.1-0.2-0.2-0.4-0.3-0.6c0-0.2,0-0.5,0.1-0.7c1.4-4,5.9-9.7,12.4-12.7
		c0.2-0.1,0.4-0.1,0.7-0.1c0.2,0,0.4,0.1,0.6,0.3c3.8,2.7,6.1,3.4,9.2,3.3c3.1-0.1,9.1-2.1,14-3.5
		C630,460.1,630.1,462.3,630.3,466.3z"/>
	<path class="st17" d="M591.2,479c1.8,2.1,3.7,4.1,5.8,6c2.5,1.8,6.1-1.3,9-3.6c2.3-2.1,5-3.7,8-4.6c3.9-1.5,11.2-5.1,14.4-8.3
		c0.7-0.7,1.4-1.4,1.9-2.2c-0.2-4-1.1-6-5.2-4.8s-6.4,2.2-9.4,2.9c-0.9,0.2-1.7,0.7-2.3,1.4c-0.6,0.7-1.1,1.5-1.3,2.4
		c-0.1,1.1-0.3,2.2-0.5,3.5c-5.4-1.1-10.6,0.7-11.7,7.8C599.9,479.5,595.3,477,591.2,479z"/>
	<path class="st10" d="M628.4,468.5l1.9-2.1c0.1-0.2,0.2-0.5,0.2-0.7c-0.1-0.8-0.3-1.5-0.6-2.2c-0.8,1.5-2.2,3-5.3,5.3
		c-4.9,3.6-10.4,4.9-13.7,6c-3,1.1-5.8,2.9-8.1,5.1c-1.8,2.1-4.2,3.5-6.9,4.2l1.1,0.9c2.5,1.8,6.1-1.3,9-3.6c2.3-2.1,5-3.7,8-4.6
		C617.9,475.3,625.2,471.7,628.4,468.5z"/>
	<path class="st7" d="M567.4,473c-5.1-1.4-10.3,1-14.9,9.7c-1.3-1-4.5-2.1-9.3-1.2c-4.8,0.9-6.6,3-7.4,4.6c-0.5,0.9-0.6,2-0.4,3
		c0.3,1.3,0.7,3,1.3,5.8c0.9,4.3,0.4,8.1,2.8,8.5l33.6-24.2C573.1,479.2,574,474.8,567.4,473z"/>
	<path class="st17" d="M567.4,473c-5.1-1.4-10.3,1-14.9,9.7c-0.6,1.3-1.2,2.6-1.7,4c-5.3-0.5-7.8,1.8-8.7,6.9c0,0-3.5-2.4-5.6,0.4
		c0.1,0.3,0.1,0.6,0.2,0.9c0.9,4.3,0.4,8.1,2.8,8.5l33.6-24.2C573.1,479.2,574,474.8,567.4,473z"/>
	<path class="st10" d="M573.1,477.8l-2.5-2.3c-4.3-0.7-7.9-0.8-11.7,3.5s-6.3,9-10.3,11.8c-5.7,4.2-10.5,5.9-11.2,9
		c-0.7,3.1,0.7,3.4,2.1,3.6l33.6-24.2C573.2,478.7,573.2,478.3,573.1,477.8z"/>
	<path class="st10" d="M568.8,474l2.4,0.7c0.2,0,0.4,0.1,0.6,0.2c0.2,0.1,0.3,0.3,0.4,0.5c0.9,1.6,1.3,3.4,1.1,5.2l-8.8-1.6
		c2.9-1.4,3.9-2.7,3.6-4.4c0-0.1,0-0.2,0-0.3s0.1-0.2,0.2-0.2c0.1-0.1,0.2-0.1,0.3-0.1C568.6,473.9,568.7,474,568.8,474z"/>
	<path d="M539.7,503.5c8.6,1.7,12.4-1,16.1-4.8c1.5-1.7,3.3-3.1,5.3-4.3c5.1-2.9,9.1-6,11.8-10.9c2.7-4.9-5.6-8.1-11-3.6
		c-5.4,4.5-5.7,9.8-16.4,16.4C538.2,500.9,537.2,503,539.7,503.5z"/>
	<path class="st10" d="M540.9,487.9c0-1-0.4-1.8-1-1.9c-0.6,0-1.1,0.7-1.2,1.7c-0.1,1,0.4,1.8,1,1.9
		C540.4,489.7,540.9,488.9,540.9,487.9z"/>
	<path class="st10" d="M630.6,465.1c-0.2-1-0.5-2-1-2.9c-0.1-0.1-0.2-0.2-0.3-0.1h-0.1c-0.2,0-0.2,0.1-0.2,0.2
		c0.5,2.1,0.7,4.5-0.4,5.9C630.9,466.4,630.7,465.4,630.6,465.1z"/>
	<path class="st10" d="M594.9,475.7c0.9-0.2,1.4-1.5,1.1-2.9c-0.3-1.4-1.3-2.4-2.2-2.2c-0.9,0.2-1.4,1.5-1.1,2.9
		C593,475,594,475.9,594.9,475.7z"/>
	<path class="st26" d="M669.9,625.5c42.3,0,77-17.6,122.6-57.8s61.6-53.4,74.5-65.9s12-20.6,5.3-36.6s-11.1-13.7-11.1-13.7
		c-0.8-13-13.5-34.5-27.5-51.8s-22.4-14.5-37.8-14.5c-15.4,0-20.5,4.2-27.4,22.6c-6.9,18.4-24.1,34-56.6,39.7s-50.3,5.4-51.2,21.7
		s0,44.4-14.4,66.6c-17.9,8.7-36.7,15.3-56.1,19.7c-11.4,2.6-13.8,10.1-14.9,19.9c-1.1,9.8,2.9,15.1,4.8,18.2
		c-3.9,3.7-3.1,5.3-1.2,14c0.8,3.5,1.7,7,2.5,10.1c0.7,2.3,2,4.2,3.9,5.6c1.9,1.4,4.2,2.2,6.5,2.2H669.9z"/>
	<path class="st27" d="M575.3,575.4c-1.1,9.8,2.9,15.1,4.8,18.2l78.3,9l75.8-11.1c0,0,50-40.3,43.2-53.7
		c-6.8-13.4-21.1-0.8-40.2,12.2s-38.9,14.2-61.6,10.9c-22.7-3.3-50.2-13-85.4-5.4C578.8,558.1,576.4,565.6,575.3,575.4z"/>
	<path class="st29" d="M785.5,531.1c0.1-17.3-0.5-21.4,5.3-20.6s15.3,2.7,15.3,2.7l-10.3,16.3L785.5,531.1z"/>
	<path class="st29" d="M815.9,504.2c0-8.4-0.7-13.9,1.6-15.1s5,0.3,9.8,4.6S815.9,504.2,815.9,504.2z"/>
	<path class="st29" d="M585.1,591.5c-1.3-10.1-1-18.1,1.7-20.1c2.7-2,5.3,2.6,7.2,6.6c2.4,5.1,5.4,9.8,9,14.2L585.1,591.5z"/>
	<path class="st29" d="M671.9,593.7c3.3-13.5,6.1-16.8,8.9-17c2.8-0.2,4.2,6.2,8.2,15.3l-6.6,3.1L671.9,593.7z"/>
	<path class="st10" d="M851.9,470.2c-42.5,41.1-67.9,63.7-103.5,90.2c-35.6,26.5-51.5,33.4-81.4,33.4c-29.9,0-49.1-16.8-86.9-0.2
		c-3.9,3.7-3.1,5.3-1.2,14c0.8,3.5,1.7,7,2.5,10.1c0.7,2.3,2,4.2,3.9,5.6c1.9,1.4,4.2,2.2,6.5,2.2h78.1c42.3,0,77-17.6,122.6-57.8
		s61.6-53.4,74.5-65.9s12-20.6,5.3-36.6s-11.1-13.7-11.1-13.7C861.2,456,861.5,460.8,851.9,470.2z"/>
	<path class="st17" d="M872.8,466.3c-0.1,5.8-3.7,12.4-13.5,21.4c-19.2,17.5-58.9,53.3-86.2,76.5c-29.9,25.7-57.7,46.9-94.7,46.9
		c-12.9,0-27-2.7-40.7-5.3c-24.1-4.6-47-8.9-58.6,2.7c0.1,0.6,0.3,1.3,0.4,1.9c10.8-11.9,33.7-7.6,57.9-3c13.8,2.6,28,5.3,41,5.3
		c37.5,0,66.7-22.4,95.7-47.2c27.3-23.3,67.1-59.2,86.2-76.6c7.2-6.6,12.4-12.7,13.7-19.4L872.8,466.3z"/>
	<path d="M760.9,593.1L747,561.5c-5.3,3.9-10.2,7.4-14.7,10.5l-1.2,1.4c5.2-2.2,10.4,0.7,10.8,9.6c0.1,4.8,0.1,14.5,0.1,22.3
		C748.5,601.6,754.8,597.5,760.9,593.1z"/>
	<path d="M597.6,617.5c-8,0.1-11.9,3.3-8.7,6.4c1.2,1.1,2.7,1.7,4.3,1.6h68.7C627.7,625.5,624.2,617.1,597.6,617.5z"/>
	<path class="st27" d="M833.2,441c-10.3,13.2-13.9,18.4-9.6,32.5c1.8,6.1,4.1,12.6,6,18l22.3-21.3c9.6-9.4,9.3-14.2,9.3-18.7
		c-0.7-11.1-10-28.4-21.5-44C845.5,415.9,843.5,427.8,833.2,441z"/>
	<path class="st15" d="M819.5,424.2c5.9-22.5,5.3-37.5-9.2-39c-4.3-0.4-8.9,0-14.4,0c-15.5,0-20.5,4.2-27.4,22.6
		c-6.9,18.4-24.1,34-56.6,39.7s-50.3,5.4-51.2,21.7s0,44.4-14.4,66.6c-2.1,3.7,0.4,6.2,30.3,6.2c29.9,0,47.7-1.8,52.7-14.3
		s12.2-39.8,15.8-50.6c3.6-10.8,3-17,22.9-21.5C787.9,451.1,813.9,445.9,819.5,424.2z"/>
	<path d="M750.4,452.8c16-6.6,27.3-5.1,44.3-13.2s19.2-14.1,21.3-25.2c2.1-11.1,3.6-24.2-6.7-25.1c-10.3-0.9-19.6-0.5-24.3,1.1
		c-4.7,1.6-5.9,4.5-11,15s-7.6,26.1-30.5,36.3L750.4,452.8z"/>
	<path class="st29" d="M615.6,586.5c0.1,5.1,1.5,12.4,4.3,13.1c2.8,0.7,4.1-5,7-12.1C623.8,584.3,615.6,581,615.6,586.5z"/>
	<path class="st6" d="M743.2,563.3c-2.5,0.1-4.9,0.8-7.1,1.9c-9.3,4.7-9.2,8.7-8.9,10.1c12.7-7.7,18.3,0.8,21.9,25.7
		c1.4,9.8,3.9,14.6,11.1,14.6c8.8,0,14-6.2,13.4-22.2c-0.1-3-0.5-6-1-9c-2.5-13.4-7.7-26.9-20.3-26.9c-1.9,0.1-3.7,0.7-5.3,1.7
		S744.1,561.6,743.2,563.3z"/>
	<path class="st30" d="M837.1,518.2c-5.4,4.8-10.8,5.2-12,1c-1.2-4.2,2.1-11.6,7.5-16.3l9.4-8.3c5.4-4.8,10.8-5.2,12-1
		s-2.2,11.6-7.5,16.3L837.1,518.2z"/>
	<path class="st9" d="M743.2,563.3c8.4,0.9,14.8,4.8,17.5,15.4c1.9,7.5,1.3,16.3,2.6,23.9"/>
	<path class="st2" d="M838.9,443.3l-2.5,3.4c-7.9,10.3-10.8,14.1-2.4,40.6l1.3-1.2c-7.9-25-5.3-28.5,2.3-38.4l2.6-3.4
		c6.2-8.4,8.5-16.7,8.3-23.8l-1.8-2.8C847.7,425,845.7,434.1,838.9,443.3z"/>
	<path class="st29" d="M725,581.7c0.8-4.5-0.2-6.7-2.5-6.4c-2.3,0.3-4.3,1.7-6.5,6.8C717.8,601.6,723,594,725,581.7z"/>
	<path class="st6" d="M807.2,392.5l15.7-2c2.5-0.3,3.4-6,4.5-13.2c1.1-7.2-0.2-20.3-0.2-20.3l-16.2,4.9L807.2,392.5z"/>
	<path class="st7" d="M850.8,352.3c-6.7-7.5-40.7-33.7-40.7-33.7l-8,11.5c0,0,11.3,12.5,19.4,20.9c-16.4,1.3-46,5.2-46,5.2
		c-21-4.2-29.9-6.2-29.9-6.2l21.6-20.5l-7.9-11.8c0,0-20.6,12.6-32.2,21.7c-11.6,9.1-13.5,20.3-2.5,28.8c11,8.5,14.7,11.1,14.7,11.1
		l70.9,7.3c20.8-5.8,33.2-12.1,40.7-18.6C858.4,361.5,857.5,359.8,850.8,352.3z"/>
	<path class="st9" d="M733.4,348.9c2.5,0.4,6.9,1.6,6.9,1.6"/>
	<path d="M805.8,315l-7.1,11.9l8,8.2c2.6-2.9,5.2-8,4.4-15.7L805.8,315z"/>
	<path class="st6" d="M759.8,367c-9.6-11.8-13-16.9-15-22.8c-1.4-4.3,7.1-1.7,18.1,1.6C773.9,349.1,772.2,352.2,759.8,367z"/>
	<path class="st6" d="M746,349.7c-10.1,11.3-10.3,25.1-9.2,44.4c0,0-17.4,17.5-14.9,32.8c2.5,15.3,26.3,21.9,53.4,21.6
		c21.8-0.2,24.2-5.3,26.2-15.6c1.2-6.7,2.1-14.4,2.7-20.4c0.6-6.3,2.2-12.5,4.7-18.3c13.4-31.1,2.6-42.3,2.6-42.3l-36.2,2.9
		L746,349.7z"/>
	<path class="st17" d="M754,333.5c-8.5,6.3-6.7,15.9,5.3,29.1l5.4,5.4l34.9-5.7c11.2-13.9,9-23.2,4.9-29c5.7-9.4,6.1-15.9,6-21.7
		c-0.1-9.8-9-25.2-31.4-25c-12.2,0.1-23,4.9-26.9,20.4C750.8,312.4,750.5,321.2,754,333.5z"/>
	<path d="M797.2,299.3c0.3,0,0.5,0.1,0.8,0.2c0.2,0.1,0.5,0.3,0.6,0.5c0.2,0.2,0.3,0.4,0.4,0.7c0.1,0.3,0.1,0.5,0.1,0.8l-1.2,13.5
		c-0.4,3-1.8,5.8-4,7.9c-2.2,2.1-5.1,3.3-8.2,3.4H783c-3.2,0-6.3-1.1-8.7-3.2s-4-5-4.4-8.1l-0.5-4.5c-0.1-0.5-0.3-1-0.7-1.4
		c-0.4-0.3-0.9-0.5-1.5-0.5c-0.6,0-1.1,0.2-1.5,0.6c-0.4,0.4-0.7,0.9-0.7,1.4l-0.6,7.2c-0.2,2.4-1.3,4.6-3.1,6.2s-4,2.5-6.4,2.6
		c-1.4,0.1-2.9-0.2-4.2-0.8c-1.3-0.6-2.5-1.4-3.5-2.4c-1-1.1-1.7-2.3-2.1-3.7c-0.4-1.4-0.6-2.8-0.4-4.2l1.2-13.6
		c0.1-0.5,0.3-1,0.7-1.4c0.4-0.4,0.9-0.6,1.5-0.6L797.2,299.3z"/>
	<path d="M798.5,299.8l12,11.8v2.4l-11.9-8.3L798.5,299.8z"/>
	<path class="st6" d="M811.5,351.8c-5.6-5.3-12.3-9.5-19.5-12.2c-6.5-2.3-8-2.9-9.5,0.8c-1.5,3.7-3.1,7.9-3.7,9.3
		c-0.6,1.4-7.7,6.2-12,9.8c-4.3,3.6-8.8,11.3-8.8,11.3l45.6,3.5L811.5,351.8z"/>
	<path class="st6" d="M821.3,350.8l5.9,6.2c-2.7,8.4-4.4,18.9-5.4,30.6l-23.3,1.7l13-37.4L821.3,350.8z"/>
	<path class="st6" d="M746,349.7l-4.3-0.8c-0.7-0.1-1.3,0-2,0.1c-0.6,0.2-1.2,0.5-1.7,1c-4.9,4.5-8.2,10.4-9.4,16.9
		c-1.3,7.6-0.9,8.4,7.9,13.1c5.9,3.2,12-10.8,15.3-20.3c0.4-1,0.5-2.1,0.4-3.2c-0.1-1.1-0.4-2.2-1-3.1c-0.6-1-1.3-1.8-2.2-2.4
		C748.1,350.3,747.1,349.9,746,349.7z"/>
	<path class="st8" d="M750.2,427.5c-7.7-8.9-16.3-17-25.7-24l-22.4,11.7l7.3,21.8c0,0,6,7.6,11.6,13.6s15.7,6.2,34.3,7.8
		C762.3,445.9,759.1,438,750.2,427.5z"/>
	<path class="st9" d="M713.7,436.6l2-9.7"/>
	<path class="st23" d="M792.3,423.4c-1.8-4.9-7.3-8.8-31.9-10l-9.1-9.2L726,423.5c9,15.2,19.2,33.5,29.3,34.9
		c10.1,1.4,19.2,0.7,31.2-6.6c7.6-4.7,8.6-6.9,8.8-10.9C795.2,435,794.1,429.1,792.3,423.4z"/>
	<path class="st15" d="M819.5,424.2c-5.6,21.7-31.6,26.8-51.5,31.4c-18,4.1-19.2,9.5-21.9,18.5l-13.6-3.6v-14l17.9-3.7
		c16-6.6,27.3-5.1,44.3-13.2s19.2-14.1,21.3-25.2c1.3-6.5,2.3-13.9,0.7-19l5.7,0.8C823.9,403,822.6,412.6,819.5,424.2z"/>
	<path class="st27" d="M667.3,445.7c-1.3,0.8-2.3,2-2.9,3.5c-0.5,1.5-0.6,3-0.1,4.5c2.9,9.2,4.2,16.3,1.5,38.7
		c-2.7,22.4-7.2,34.8-9.3,39.4c-0.1,0.3-0.2,0.6-0.2,0.9c0,0.3,0.1,0.6,0.2,0.9c0.1,0.3,0.4,0.5,0.6,0.7c0.3,0.2,0.5,0.3,0.8,0.3
		c11.2,1.7,28,1.5,46.4-0.9c3.1-0.4,6-1.6,8.5-3.5s4.4-4.5,5.6-7.4c4.7-11.7,8.6-23.8,11.6-36.1c6.7-27.6,5.9-27.1,20.3-33.8
		c-1.1-9.9-1-19.4-11.8-20.8c-12.6-1.6-26.4,4.6-46.2,10C687.9,438,683.8,436,667.3,445.7z"/>
	<path class="st31" d="M721.5,433.5c-8.3,2-17.7,5.4-29.1,8.5c-3.3-2.9-6.4-4.8-14.3-1.7c-0.3,0.7-0.5,1.5-0.7,2.3
		c-3.6,17.9-10.4,47.2,10,45.6c20.4-1.6,22.7-13.7,22.1-24.7s-1.9-17.1,0-20.3S718.1,434.4,721.5,433.5z"/>
	<path d="M739.8,458.8c-1.4-11.7-2.3-17.3-5.5-19.5c-3.2-2.2-4.3-1.5-8.5-0.6c-4.2,0.9-9.5,2.5-16.3,4.5c-12.7,3.7-28.5,8.4-34.5,8
		l-2-0.3c1.4-1.5,10-4.6,15.7-6.7l4-1.5c0.1,0,0.2-0.1,0.3-0.1c0.1-0.1,0.1-0.1,0.2-0.2c0-0.1,0.1-0.2,0.1-0.3c0-0.1,0-0.2,0-0.3
		l-0.8,0.2l-0.7-0.6l-3.6,1.3c-13.3,4.9-17.1,6.6-16.8,8.5c0.3,1.9,1.8,1.5,3.6,1.6c6.2,0.4,21.5-4.1,35.1-8.1
		c6.7-2,12.5-3.7,16.1-4.4c3.6-0.7,5.9-0.7,7.3,0.3c1.4,1,3.6,8,4.9,19.8L739.8,458.8z"/>
	<path class="st2" d="M744.9,313.4l19-13.8l-7.1,0.1l-11.4,8.3L744.9,313.4z"/>
	<path class="st2" d="M749.5,325.1c1.6,1,3.5,1.4,5.4,1.4c2.4,0,4.7-1,6.4-2.6s2.8-3.8,3.1-6.2l0.3-3.6L749.5,325.1z"/>
	<path class="st2" d="M797.2,299.3h-7.9l-19.5,14.1v1.5c0.2,1.5,0.7,3,1.5,4.4l27.1-19.5C798.1,299.5,797.7,299.3,797.2,299.3z"/>
	<path class="st2" d="M797.9,314.9l0.6-6.5l-22.2,16.1c2,1.1,4.4,1.7,6.7,1.7h2.7c3-0.1,5.9-1.3,8.2-3.4
		C796.1,320.7,797.6,317.9,797.9,314.9z"/>
	<path class="st9" d="M763.4,327.7c2.7-0.6,5.4-0.6,8.1,0"/>
	<path d="M679.6,407.1c0.1,0.3,0.2,0.5,0.3,0.5c0.1,0,0.2-0.1,0.3-0.4"/>
	<path class="st8" d="M696.6,402.5c-10.8,4.2-25.9,13-38.9,20.3c-7.2,4-9.4,6.4-5.6,13.7c3.8,7.3,11,14.3,16.4,19.1
		s8.4,2.8,12.4,0.2l28.5-18.8l15.1-33.5C718.2,399.1,707.5,398.2,696.6,402.5z"/>
	<path class="st32" d="M666.1,442.2c4.6,0.9,4.6,1.4,10.3-2.3c5.7-3.7,34.4-21,37.3-22.9"/>
	<path class="st23" d="M738.3,391.9c-4.5-3.3-7.6-3.5-31.8-5.5s-35.5-4.5-38.3-0.1c-2.8,4.4-0.3,15.4,2.5,23.7s4.4,11,8.3,11.3
		c3.9,0.3,40.3,1.5,47,2.2l3.3,5.6l31.1-15.7C760.4,413.4,742.7,395.2,738.3,391.9z"/>
	<path d="M661.5,435.5c-6-4.9-8.4-5.8-7.7-2.5s4.5,8.2,8.6,12.6c4.1,4.4,8.8,8.9,10.4,8.6c1.6-0.3-0.3-3.3-2.8-8.1
		C667.9,442.1,665,438.5,661.5,435.5z"/>
	<path class="st6" d="M668.1,442.8l-5,3.5l-4.1,2.9c-4.9,3.6-2.9,6.5-2.5,9.9s-0.7,5.9-3,5.9s-5.7-9.6-8.1-14.2
		c-2.4-4.6-10.3-8.3-14.4-11.8c-1.7-1.5-2.1-4,0-4.8c-0.9-1.3-2.1-4.6,0.9-5.6s7.5,4.5,10,6.2c2.5,1.7,5.6,3.3,7.9,2.3
		c1.6-0.7,3.1-1.5,4.6-2.4l3.4-2.1l3.7,2.9C664,437.6,666.2,440.1,668.1,442.8z"/>
	<path class="st26" d="M819.5,424.2c-5.6,21.7-31.6,26.8-51.5,31.4c-19.9,4.6-19.3,10.6-22.9,21.5c-3.6,10.9-10.8,38.2-15.8,50.6
		l66.5-39.1L823,437L819.5,424.2z"/>
	<path class="st10" d="M742.4,512c-2.2,7.7-4,13.5-5,17.7s3.6,3.8,8.5,2.4c4.9-1.4,7-3.5,6.2-7.8C751.3,520,744.8,503.3,742.4,512z"
		/>
	<path d="M661.5,435.5l-3.7-2.9c-0.9-0.1-1.4-0.1-1.8,0.2c-0.4,0.3-0.3,0.5-0.2,1c2.3-0.4,8,3.7,8.2,11.8c1.3,0.6,2,1,2.5,0.7
		c0.5-0.3,1.2-1.7,1.6-3.5C666.2,440.1,664,437.6,661.5,435.5z"/>
	<path class="st11" d="M652.7,460.6c-1-3.8-4.4-11.6-7.3-14.7c-2.9-3.1-7.5-10.4-9-12.8s-5.4-5.4-6.3-2.7c-0.2,1.3,0.1,2.7,0.9,3.8
		c-2.1,0.8-1.7,3.3,0,4.8c4.1,3.5,11.8,6.7,14.4,11.8c2.6,5.1,4.4,12.5,7.2,14l0.8,0.2C653.9,464.9,653.6,463.5,652.7,460.6z"/>
	<path class="st33" d="M767.1,280.6c-1.3,3.6-1.4,7.4-0.4,11.1c0.2,0.6,0.5,1.2,1.1,1.6c0.5,0.4,1.2,0.6,1.8,0.6h6.1
		c0.7,0,1.4-0.1,2-0.4c0.6-0.3,1.2-0.7,1.6-1.2c3.7-3.9,10.4-4.9,15.6-2.7l3.1-4.5c0.3-0.4,0.5-1,0.5-1.5c0-0.6-0.3-1.1-0.7-1.5
		c-3-2.9-6.7-5-10.6-6.4c-4-1.3-8.1-1.8-12.3-1.3c-1.7,0.2-3.4,0.9-4.8,2C768.8,277.5,767.7,278.9,767.1,280.6z"/>
	<path d="M822.2,382.9c-0.4,4.7,0.4,6.3,1.5,4.4c0.8-1.7,1.2-3.5,1.4-5.4L822.2,382.9z"/>
	<path class="st9" d="M810.2,352.2c-8.6,1.1-13.4,2.6-17.7,4.6"/>
	<path class="st9" d="M827.8,358.2l3.7,3.7"/>
	<path class="st9" d="M805.9,393.7c0,0-4.5,3.3-7.4,5.7"/>
	<path class="st34" d="M766.4,367.9l-0.8,11.8h-5.3c0.3-3.9,0.9-7.7,1.8-11.5c0.2-0.6,0.5-1.3,0.9-1.8l0,0c1.3-1.7,2.9-3.1,4.6-4.4
		l9.2-6.9c2.6-1.9,4.6-4.6,5.7-7.6c1.3-3.4,2.9-7.7,3.6-8.6"/>
	<path class="st35" d="M822.1,351.6c-4.2,10.6-8.8,28.6-5.3,37.2c0.4,0.8,0.8,1.6,1.3,2.3l2-0.2c-0.8-0.8-1.4-1.7-1.8-2.7
		c-3.2-7.7,0.8-24.3,5-35.3L822.1,351.6z"/>
	<path class="st35" d="M729.5,375.5c0.4,0.5,0.9,0.9,1.4,1.2c1-11.7,5.8-21.6,13.2-27.4l-2-0.3C735.2,354.9,730.6,364.4,729.5,375.5
		z"/>
	<path class="st9" d="M809.8,393l-11.1,1.3"/>
	<path class="st2" d="M794.9,435.4c-4,2.7-12.5,6.8-17.9,8c-1.3,0.3-2.7,0.4-4.1,0.4c-2.2,0.1-4.3-0.4-6.3-1.3
		c-2-0.9-3.6-2.3-4.9-4.1l-5.2-7.3c-4.5-6.4-10.2-14.3-14.3-20c-0.1-0.2-0.1-0.3-0.2-0.4c-6.2-8.7-9.5-12.5-14.1-13.2
		c-4.6-0.7-17.9-1.9-41.2-3.7c-5.8-0.4-6.7-0.3-7.8,2.3c0,0.1-0.1,0.2-0.2,0.3s-0.2,0.1-0.3,0.2c-0.1,0-0.2,0.1-0.3,0
		c-0.1,0-0.2,0-0.3-0.1c-0.2-0.1-0.3-0.2-0.4-0.4c-0.1-0.2-0.1-0.4-0.1-0.6c1.6-3.9,4-3.7,9.4-3.3c13.6,1.1,36.9,2.9,41.4,3.7
		c4.5,0.8,9.4,5.9,15.1,13.9c0,0.1,0.1,0.2,0.2,0.3c4.1,5.7,9.7,13.7,14.3,20l5.2,7.4c2.8,3.9,7.9,5.5,13.6,4.3
		c5.7-1.2,15-6,18.1-8.2C794.8,434.2,794.9,434.8,794.9,435.4z"/>
	<path d="M671.3,388c-2.9,2.7-1.4,8,0.6,15.3c2,7.3,4.5,13.9,5.8,13.7s2-2.8,2.3-6.6c0.3-3.8,0.2-10.6-1.3-15.7
		C677.2,389.6,673.5,385.9,671.3,388z"/>
	<path class="st6" d="M680.2,407.2l-7.4-0.9c-3.6-0.5-7.2-0.8-10.8-1c-0.7,4.3-2.2,9.8-4.3,12c-2.1,2.2-5.8,2.1-6.2-2.9
		s-0.1-12.1-3.4-26.9c-1.2-5.5-3.4-8.8-4.2-13c-0.8-4.2,1.6-4.9,3.8-4.5c-0.5-2.8-0.3-6.4,3.2-6.9s4.9,2.5,4.9,6.4
		c0.5-0.7,1.3-1.2,2.1-1.5c0.9-0.2,1.8-0.2,2.6,0.2c2.4,0.9,2.9,3.9,2.6,8.7c-0.3,4.8-0.4,9.9,1.6,11.6s2.5,1.1,5.3,1.5l6.8,0.6
		c0.8,1.3,1.5,2.7,1.9,4.1C679.7,398.8,680.3,403,680.2,407.2z"/>
	<path d="M680.2,407.2c0-4.2-0.5-8.4-1.5-12.5c-0.5-1.4-1.1-2.8-1.9-4.1h-0.9c2.5,3.2,4,11.6,0,16.1c0.6,0.5,1.2,0.8,1.9,1.1
		C678.7,407.9,679.5,407.7,680.2,407.2z"/>
	<path class="st11" d="M660.6,374.1c0.4-4.7-2.9-6.7-4.8-4.6c0-3.9-1.3-6.9-4.9-6.4c-3.6,0.5-3.7,4.1-3.2,6.9
		c-2.2-0.4-4.6,0.4-3.8,4.5c0.8,4.1,3,7.5,4.2,13c3.3,14.8,2.9,21,3.4,26.9c0,1.2,0.4,2.3,1.1,3.3c2.3,2.4,3.3-0.5,3.2-4.9
		c-0.1-6.9,0.3-13.8,1.2-20.6C658,384.2,660.3,378.8,660.6,374.1z"/>
	<path class="st6" d="M651.3,363.1c3.1-0.1,3.2,3.8,3.1,8.1l1.4-1.7C655.8,365.8,654.6,362.8,651.3,363.1z"/>
	<path class="st9" d="M731.6,412.3c-1.6,3.9-3.4,7.6-5.6,11.2c4.6-2,6.5-3,6.5-3"/>
	<path class="st9" d="M761.3,414.3l10.6,10.8c8.6,1.1,10.6,2.9,12.9,5.8"/>
	<path class="st9" d="M771.9,425.1l9.7,0.3"/>
	<path d="M745.5,526.2c-1.3,3.3-3.5,5.5-4.9,5c-1.4-0.5-1.4-2.1,0-5.2c0.6-1.3,1.1-2.6,1.5-3.9c0.8-2.9,2.3-3.4,3.4-2.9
		S746.9,522.8,745.5,526.2z"/>
	<path class="st36" d="M666.9,481.7c-0.1,1.7-0.3,3.6-0.5,5.6l22.4,2.5l-23.6,7.4c-0.5,3.4-1,6.5-1.5,9.4l15.6,1.6
		c-5.3,1.9-11.1,3.9-17.3,6.3c-0.8,3.5-1.6,6.5-2.4,9l7.3,0.2l-8.2,2.3c-0.6,2-1.3,3.9-2.2,5.8c-0.1,0.3-0.2,0.5-0.2,0.8
		c8.9-2.8,17.9-5.1,26.6-7c8.9,1.6,17.6,3.8,26.2,6.7c2.2-0.9,4.1-2.3,5.7-4c-3.4-1.2-8.4-2.8-14.5-4.5l-3.5-0.9
		c8.3-1.4,16-2.6,23-3.5c1.1-2.8,2.3-6.1,3.5-9.7c-6.5-1.5-13.2-2.7-19.7-3.8c9.4-2.9,16.8-5,23-6.5c1-3.4,2-7,3-10.8l-13.5-1.4
		l14.9-4.6l1.6-6.3l-30.5,9.3L666.9,481.7z M717.2,514.1c-10.2,1.4-22.1,3.2-34.5,5.9c-4.7-0.8-9.6-1.4-14.7-1.8
		c8.9-3.3,16.7-6.1,23.7-8.4C699.8,510.9,708.6,512.3,717.2,514.1z M725.8,493.8c-8.5,2.1-19.5,5.2-34.6,10.3
		c-8.1-1.1-15.4-1.9-21.3-2.5l32.8-10.3L725.8,493.8z"/>
	<path class="st36" d="M667.3,473.8c-0.1,1.9-0.1,4-0.3,6.4c25.6-0.8,54.9-3.9,65.9-5.2c0.6-2.6,1.2-4.8,1.8-6.7
		C726.8,469.3,694.9,473,667.3,473.8z"/>
	<path d="M710.6,526.9l4.2,1.4c-1.6,1.7-3.5,3.1-5.7,4l-4-1.3C707.2,530,709.1,528.6,710.6,526.9z"/>
	<path d="M720,509l3.3,0.7c-1.2,3.6-2.4,6.9-3.5,9.7l-4.4,0.6C717.3,516.5,718.8,512.8,720,509z"/>
	<path d="M725.7,488.2l3.9,0.4c-1,3.8-2,7.4-3,10.8l-4,1c0.6-2,1.1-4.1,1.6-6.2c0.1-0.2,0.1-0.4,0.2-0.6
		C724.8,491.8,725.3,490,725.7,488.2z"/>
	<path d="M728.3,477.6l4.3-1.3l-1.6,6.3l-4.3,1.3C727.2,481.8,727.8,479.7,728.3,477.6z"/>
	<path d="M734.7,468.3c-0.6,1.9-1.2,4.1-1.8,6.7l-4.1,0.4l1.8-6.6L734.7,468.3z"/>
	<path d="M658.7,526l5-1.4c-0.7,2.2-1.4,4.3-2.2,6.4l-5.2,1.6c0-0.3,0.1-0.5,0.2-0.8C657.4,529.9,658.1,528,658.7,526z"/>
	<path d="M662,514.5l4.5-1.7c-0.7,3.8-1.5,7.3-2.5,10.8h-4.4C660.4,521.1,661.2,518,662,514.5z"/>
	<path d="M665.2,497.2l3.7-1.2c-0.4,3.9-0.9,7.5-1.4,11l-3.8-0.4C664.2,503.7,664.7,500.6,665.2,497.2z"/>
	<path d="M666.9,481.7l3.4,0.4l-0.6,5.5l-3.3-0.3C666.6,485.3,666.8,483.4,666.9,481.7z"/>
	<path d="M671.1,473.7l-0.6,6.4H667c0.2-2.4,0.2-4.5,0.3-6.4H671.1z"/>
	<path class="st10" d="M768.5,499.1l0.2,8.5c0,0.4,0.1,0.9,0.4,1.2c0.2,0.4,0.5,0.7,0.9,0.9c0.4,0.2,0.8,0.3,1.3,0.3
		c0.4,0,0.9-0.1,1.2-0.4c0.5-0.3,0.8-0.7,1-1.2c0.2-0.5,0.2-1.1,0.1-1.6l-2.9-10L768.5,499.1z"/>
	<path class="st36" d="M753.9,473.5c8,2.5,9.6,11,11.3,25.4c0,0.4,0.2,0.7,0.4,1c0.2,0.3,0.5,0.5,0.8,0.7c0.3,0.1,0.7,0.2,1,0.2
		c0.4,0,0.7-0.2,1-0.4l2.8-2.1c0.7-0.5,1.3-1.2,1.7-2.1c0.4-0.8,0.5-1.7,0.3-2.6c-0.3-1.8-0.8-4.6-1.3-8.4
		c-1.2-7.4-6.1-16.4-15.5-17.5c-0.5-0.1-1,0.1-1.5,0.3c-0.4,0.3-0.8,0.6-1,1.1c-0.5,1.1-0.7,2.4-0.7,3.6c0,0.2,0.1,0.4,0.2,0.6
		C753.5,473.3,753.7,473.4,753.9,473.5z"/>
</g>
<g>
	<path class="st0" d="M2267.5,626h-164.9v-51.5c38.4-36.6,82.2-11.4,85.1,15.8C2231.4,561.9,2272.5,584.6,2267.5,626z"/>
	<path class="st2" d="M2102.6,490.1H1667V626h435.6V490.1z"/>
	<path class="st37" d="M1667,532.1l435.6-35.1v-6.9H1667V532.1z"/>
	<path class="st38" d="M2102.6,490.1h-3.2V626h3.2V490.1z"/>
	<path class="st38" d="M2063.3,490.1h-3.2V626h3.2V490.1z"/>
	<path class="st38" d="M2024,490.1h-3.2V626h3.2V490.1z"/>
	<path class="st38" d="M1984.7,490.1h-3.2V626h3.2V490.1z"/>
	<path class="st38" d="M1945.3,490.1h-3.2V626h3.2V490.1z"/>
	<path class="st38" d="M1906,490.1h-3.2V626h3.2V490.1z"/>
	<path class="st38" d="M1866.7,490.1h-3.2V626h3.2V490.1z"/>
	<path class="st38" d="M1827.4,490.1h-3.2V626h3.2V490.1z"/>
	<path class="st38" d="M1788.1,490.1h-3.2V626h3.2V490.1z"/>
	<path class="st38" d="M1748.8,490.1h-3.2V626h3.2V490.1z"/>
	<path class="st38" d="M1709.5,490.1h-3.2V626h3.2V490.1z"/>
	<path class="st38" d="M1670.2,490.1h-3.2V626h3.2V490.1z"/>
	<path class="st39" d="M1785.2,364.4c-4.1-13.6-6.3-20.1,1.1-24.1s29.9-1.3,40.4,1.2s12,5.1,5.1,15.4L1785.2,364.4z"/>
	<path class="st18" d="M1780.4,486.7c-1.6-40.4-0.6-74,0.7-91.9c-6.7-4.4-9.8-7.8-11.1-9.7c-0.3-0.4-0.4-0.8-0.4-1.3
		c0-0.5,0.2-0.9,0.5-1.2c10.6-13.3,19.7-24.9,29.2-30.3s22.5-6.8,43.2,13.8c0.2,0.3,0.3,0.6,0.3,0.9c0,0.3-0.2,0.6-0.4,0.9
		c-1.6,1.6-3.4,3.2-5.2,4.6c4.2,7.5,10.3,18.9,10.3,18.9h4.8c3.1,0,6,1.2,8.2,3.4c2.2,2.2,3.4,5.1,3.4,8.2
		c0.1,9.3-2.1,20.5-6.4,34.9c19.2,15.6,14.5,48.7,14.5,48.7L1780.4,486.7z"/>
	<path class="st15" d="M1857.5,437.9c0.6-2.1,1.2-4,1.7-6l-15.1,8.4c0,0-23.9-16.1-64-26.1c-0.7,18.6-0.8,43.8,0.3,72.5h91.6
		C1872,486.7,1876.7,453.5,1857.5,437.9z"/>
	<path class="st40" d="M1861.3,441.6c-1.2-1.3-2.4-2.6-3.8-3.7c0.6-2.1,1.2-4,1.7-6l-15.1,8.4c0,0-23.9-16.1-64-26.1
		c-0.1,2.3-0.2,4.8-0.2,7.3c30.7,12.7,47.2,34.5,49.1,65.2h22.7C1855.7,469.1,1858.9,453.7,1861.3,441.6z"/>
	<path d="M1792.2,402.5h0.4c0.2-0.2,0.4-0.3,0.5-0.6l8.7-28.1c0.1-0.1,0.1-0.2,0.1-0.4c0-0.1,0-0.3-0.1-0.4
		c-0.1-0.1-0.1-0.2-0.2-0.3c-0.1-0.1-0.2-0.2-0.3-0.2c-0.1,0-0.3,0-0.4,0c-0.1,0-0.3,0.1-0.4,0.1c-0.1,0.1-0.2,0.2-0.3,0.3
		c-0.1,0.1-0.1,0.2-0.1,0.4l-8.4,27.2c-3.6-1.5-7.1-3.4-10.4-5.6h-0.2c0,0.6-0.1,1.3-0.1,1.9c3.5,2.2,7.1,4.1,10.9,5.7H1792.2z"/>
	<path d="M1829.4,357.3l-35.8,2.6C1833.6,367.5,1835.3,368.6,1829.4,357.3z"/>
	<path class="st41" d="M1849.2,462.1l-3.8-35.5c-0.1-0.6-0.4-1.2-0.9-1.6c-0.5-0.4-1.1-0.6-1.7-0.6h-3.8l-1.7-3.3
		c-0.5-0.9-1.4-1.6-2.3-1.9c-1-0.3-2.1-0.3-3.1,0c-1,0.4-1.8,1.2-2.3,2.2c-7.5,16.1-11.2,42.6-11.9,47.6c0,0.2,0,0.5,0.2,0.7
		s0.3,0.3,0.5,0.4l21.6,6.9c0.1,0.1,0.3,0.1,0.4,0.1c0.1,0,0.3-0.1,0.4-0.1c0.1-0.1,0.2-0.2,0.2-0.3c0-0.1,0-0.3,0-0.4l-0.8-10.1
		l8-2.5c0.3-0.1,0.6-0.3,0.8-0.6C1849.2,462.8,1849.3,462.4,1849.2,462.1z"/>
	<path class="st42" d="M1830.7,433.8l-3.3,34.5"/>
	<path d="M1820.5,383.3c1.4-0.6,1.6-3.2,0.6-5.8c-1.1-2.7-3.1-4.4-4.5-3.8c-1.4,0.6-1.6,3.2-0.6,5.8
		C1817.1,382.2,1819.1,383.9,1820.5,383.3z"/>
	<path class="st43" d="M1830.8,388.8c1.8-3.4,1.6-7-0.5-8.1c-2.1-1.1-5.2,0.8-6.9,4.1c-1.8,3.4-1.6,7,0.5,8.1
		C1825.9,394.1,1829,392.2,1830.8,388.8z"/>
	<path class="st43" d="M1845.5,388.9c1.8-3.4,1.6-7-0.5-8.1c-2-1.1-5.2,0.8-6.9,4.1c-1.8,3.4-1.6,7,0.5,8.1
		C1840.6,394.1,1843.7,392.2,1845.5,388.9z"/>
	<path d="M1835.4,382.8c0.9-0.4,0.8-2.7-0.2-5.3c-1-2.6-2.6-4.3-3.5-4c-0.9,0.4-0.8,2.7,0.2,5.3
		C1832.9,381.4,1834.5,383.2,1835.4,382.8z"/>
	<path class="st44" d="M1844.9,409c-7.7,0-15.2-2.6-21.2-7.5c-6.2-5.1-3.7-5.7,0.2-5.8c3.9-0.1,22.6,0.6,28,1.4
		C1857.3,397.9,1858.3,408.6,1844.9,409z"/>
	<path class="st45" d="M1844.9,409c-7.7,0-15.2-2.6-21.2-7.5c-6.2-5.1-3.7-5.7,0.2-5.8c3.9-0.1,22.6,0.6,28,1.4
		C1857.3,397.9,1858.3,408.6,1844.9,409z"/>
	<path class="st9" d="M1844.5,420.2l-0.4-3.7c2.8-0.2,5.6-1,8.1-2.3"/>
	<path class="st41" d="M1848.6,408.5c-5.4-5.2-12.7-9.1-26.2-8.2C1834,411,1846.1,409.2,1848.6,408.5z"/>
	<path class="st43" d="M1831.4,385.3h6.1"/>
	<path class="st19" d="M1822.2,386.5l-25.8-10.5c-0.5-0.2-1.1-0.3-1.7-0.2c-0.6,0.1-1.1,0.3-1.6,0.6c-0.5,0.3-0.9,0.8-1.2,1.3
		c-0.3,0.5-0.4,1.1-0.4,1.7l0,0c0,0.7,0.2,1.4,0.6,1.9c0.4,0.6,0.9,1,1.5,1.3l1.7,0.8"/>
	<path class="st24" d="M1816.8,373.4c2,0.1,4.1-0.2,6-0.8"/>
	<path class="st24" d="M1831.8,373.4c1.3,0,2.5-0.2,3.7-0.8"/>
	<path class="st39" d="M1788.6,360.9c35.7-0.5,47.8-4.5,58-8.2c10.2-3.7,9.2-6.6,1.4-6.3C1840.2,346.7,1813.5,356.9,1788.6,360.9z"
		/>
	<path class="st18" d="M1779.8,424.7l-0.2,9.8l4.9-1.9c0,0,26.1-10.9,32.3-12.4s12.1,1.4,21,4.8s6.6,6.5,3.8,9.5
		c-2.8,3-2.7,2.8-17.4,2.8c-28.1,20.3-36.7,32.2-48.2,32.2c-6.9,0-12.8-3.1-17.2-16.7C1754.4,439.2,1762.6,433,1779.8,424.7z"/>
	<path class="st10" d="M1877.7,435.9l-15-18.1l-25.6,25.5l18.1,15.1c-0.2,1.7,0,3,0.9,3.9c2.7,2.7,10.6-0.8,17.7-7.8
		s10.5-15,7.8-17.7C1880.7,435.9,1879.4,435.7,1877.7,435.9z"/>
	<path class="st10" d="M1853.3,434c7-7,11.2-14.2,9.3-16.1c-1.9-1.9-9.1,2.3-16.1,9.3c-7,7-11.2,14.2-9.3,16.1
		C1839.1,445.2,1846.3,441,1853.3,434z"/>
	<path class="st40" d="M1851.6,432.3c6.4-6.4,10.6-12.4,9.5-13.5c-1.1-1.1-7.1,3.2-13.5,9.5c-6.4,6.4-10.6,12.4-9.5,13.5
		C1839.2,442.9,1845.2,438.6,1851.6,432.3z"/>
	<path class="st18" d="M1876.3,428.3c4.3,0.6,6,4.5,4.3,9.7c-0.2,0.6-0.5,1-1,1.4c-0.4,0.4-1,0.7-1.5,0.8c-0.6,0.1-1.2,0.1-1.7-0.1
		c-0.6-0.2-1.1-0.5-1.5-0.9c-1-1-1.6-2.4-1.7-3.8c-0.1-1.4,0.3-2.9,1.1-4.1L1876.3,428.3z"/>
	<path class="st18" d="M1868.8,425.3c-0.2,3.7-2.4,7.4-4,9.8c-0.4,0.7-0.6,1.5-0.6,2.3c0.1,0.8,0.4,1.5,1,2.1l0.8,0.7
		c0.3,0.3,0.6,0.5,0.9,0.6c0.3,0.1,0.7,0.2,1.1,0.2c0.4,0,0.7-0.1,1.1-0.2c0.3-0.1,0.7-0.4,0.9-0.6c3-2.8,5.1-6.3,6.1-10.3
		c1.2-5.4-2.7-9.2-9.5-7.4L1868.8,425.3z"/>
	<path class="st39" d="M1788.6,360.9l12.2-1l29.3-5.8l-7.3-7.2h-34.9L1788.6,360.9z"/>
	<path class="st10" d="M1847.7,397.8l-7-0.4c0.8,4.2,2.8,6.4,4.5,5.7C1846.9,402.4,1847.5,398.7,1847.7,397.8z"/>
	<path class="st10" d="M1826.1,396.9c0.9,4.8,2.7,7.3,4.4,6.5c1.7-0.8,2.1-4.8,2.4-6.4L1826.1,396.9z"/>
	<path class="st14" d="M2118.7,490.1h-461.1"/>
	<path class="st41" d="M1837.7,441.3c0.1,0.2,0.2,0.4,0.4,0.5c0.1,0,0.1,0,0.1,0.1s7.2-3.5,13.4-9.7V432l-3.9-3.8l-3.2-3.3l-4.2,0.2
		l-8.2-3.1l-0.3,0.7C1835.3,423.9,1836,436.5,1837.7,441.3z"/>
	<path class="st46" d="M1839,424.5c1.7,3.4,3.2,6.9,4.5,10.5c0.1,0.2,0.2,0.3,0.3,0.4c0.1,0.1,0.3,0.2,0.5,0.2h0.3
		c0.2-0.1,0.4-0.2,0.5-0.4c0.1-0.2,0.1-0.4,0.1-0.7c-0.1-0.3-2.3-6.1-4.3-10H1839z"/>
	<path class="st46" d="M1840.2,466.3h-0.2l-7.7,2.3c-0.1,0-0.3,0.1-0.4,0.2c-0.1,0.1-0.2,0.2-0.2,0.4c0,0.2,0,0.3,0,0.5
		c0.1,0.2,0.1,0.3,0.3,0.4l6.8,5.9c0,0.1,0.1,0.2,0.2,0.2c0.1,0.1,0.2,0.1,0.3,0.1c0.1,0,0.3,0,0.4-0.1c0.1-0.1,0.2-0.1,0.3-0.2
		c0.1-0.1,0.1-0.2,0.2-0.3c0-0.1,0.1-0.2,0-0.4c0-0.1,0-0.2-0.1-0.3c-0.1-0.1-0.1-0.2-0.2-0.3l-5.6-4.9l6-1.8L1840.2,466.3z"/>
	<path class="st9" d="M1779.3,434.2l-14.1,6.7"/>
	<path class="st47" d="M1834.2,349.4c-15.4,4.1-31,7.4-46.8,9.9"/>
	<path class="st40" d="M1846.7,445.2l10.8,9.9c0.3,0.3,0.8,0.5,1.2,0.5c0.4,0,0.9-0.1,1.3-0.3c0.2-0.2,0.4-0.4,0.6-0.7
		c0.1-0.3,0.2-0.5,0.2-0.8c0-0.3,0-0.6-0.1-0.9c-0.1-0.3-0.3-0.5-0.5-0.7l-10.5-10.1c-0.3-0.3-0.7-0.5-1.2-0.5
		c-0.4-0.1-0.9,0-1.2,0.2l-0.3,0.2c-0.3,0.2-0.5,0.4-0.7,0.6c-0.2,0.3-0.3,0.6-0.3,0.9c0,0.3,0,0.6,0.1,0.9
		C1846.3,444.7,1846.5,445,1846.7,445.2z"/>
	<path class="st9" d="M1873.8,437.1c1.8-2.4,3-5.3,3.3-8.3"/>
	<path class="st48" d="M1962.5,298.8c0.9-4.3-1.9-8.6-6.4-9.5c-4.4-0.9-8.8,1.8-9.7,6.1c-0.9,4.3,1.9,8.6,6.4,9.5
		C1957.3,305.9,1961.6,303.1,1962.5,298.8z"/>
	<path class="st49" d="M2016,373.1c7.3,0.4,16.1,3.4,27.1,15.6c6.2-6.2,9.2-4.5,17.5,2.6c8.3,7.1,26.1,20.6,30.5,25.1
		c4.4,4.5,7.7,14.2-4.3,21.5c-12,7.3-33.3-6.1-44.5-13.9c-11.2-7.8-26.3-16.9-26.3-16.9V373.1z"/>
	<path class="st23" d="M2057.3,388.5c2.9,4.8,5.4,9.8,7.3,15.1c2.3,7.2-0.6,11.4-6.5,16.3c-5.9,4.9-8.3,3.8-11.4,1.3
		c-0.2-0.1-0.4-0.1-0.6-0.1c-0.2,0-0.4,0.2-0.5,0.3c-0.1,0.2-0.2,0.4-0.2,0.6c0,0.2,0.1,0.4,0.2,0.6c1.6,1.4,3.6,2.2,5.7,2.3
		c2.5,0,5-1.2,8-3.7c5.1-4.3,9.9-9.2,6.9-18.2c-1.1-3.2-2.5-6.4-4.1-9.4c-0.6-1.2-1.5-2.3-2.5-3.2L2057.3,388.5z"/>
	<path class="st24" d="M2042.2,418.4c5.4,5.2,18.3,14.4,18.3,14.4"/>
	<path class="st6" d="M1989.2,371.8c25.9-7.4,41.5-32.2,34.8-55.6c-6.6-23.3-33-36.2-58.9-28.9c-25.9,7.4-41.5,32.2-34.8,55.6
		C1937,366.3,1963.4,379.2,1989.2,371.8z"/>
	<path class="st10" d="M1943.1,324.8c0,9.6,4.6,18.1,10.3,19c5.7,0.9,7.1-4.1,7.3-13.4c0-2.4,0.1-4.8,0.3-7.3
		c0.6-8.6-2.5-13.3-7.6-14.1S1943.1,315.2,1943.1,324.8z"/>
	<path class="st46" d="M1985.5,325.4c-1-1.3-1.6-2.8-1.7-4.5c-0.1-1.6,0.3-3.2,1.1-4.6c8-13.6,15.3-14.1,20.5-13.8
		c5.2,0.3,9.2,5.2,4.9,17.6c6.1,6.6,3.6,12.7-5.1,13.5C1996.5,334.4,1991.8,333.7,1985.5,325.4z"/>
	<path class="st49" d="M2042.7,458.7c1.2-32.8-9.3-37-10.3-46.8c-1-9.8-2-23-12.8-37.2c0,0,1.3-13.3,2-22.2c0-0.4,0-0.7-0.2-1
		c-0.1-0.3-0.3-0.6-0.6-0.9c-0.3-0.2-0.6-0.4-0.9-0.5c-0.3-0.1-0.7-0.1-1-0.1c-7,1.1-14.1,1.6-21.2,1.3
		c-12.2-0.4-28.7-1.6-46.3,15.5l5.7,8l-0.4,0.7c-0.3,0.5-0.5,1-0.5,1.6c0,0.6,0,1.1,0.2,1.6c0.2,0.5,0.5,1,0.9,1.4
		c0.4,0.4,0.9,0.7,1.4,0.9l1.1,0.4c0,0-16.1,9.7-11.3,31.6s-0.3,43.1,7.8,49.6c1.6,1.3,3.6,2.2,5.7,2.5c2.1,0.3,4.2,0.1,6.1-0.6
		l37.1,19.8c13.5,14.9,32.7,31.6,32.7,31.6l-14.8,35.3l15.6,39.3c13.3-32.6,30.8-64.6,33.9-79.4
		C2075.7,496.3,2065.7,487.6,2042.7,458.7z"/>
	<path class="st50" d="M2028.1,570.4c7.4-22.9,15.7-43.6,18.2-49.6c0.2-0.5,0.3-1.1,0.1-1.7c-0.1-0.6-0.4-1.1-0.8-1.4
		c-21.6-20.7-26.7-27.8-26.7-27.8"/>
	<path d="M1971,444.6l-13.4-9.1c0,0,8.1-11.1,12.6-17.8l1.1-1.7c0-0.1,0.1-0.2,0.2-0.3c0.1-0.1,0.2-0.1,0.3-0.2c0.1,0,0.2-0.1,0.3,0
		c0.1,0,0.2,0,0.3,0.1c0.2,0.1,0.3,0.2,0.4,0.4c0.1,0.2,0.1,0.4,0.1,0.6C1970,434.3,1971,444.6,1971,444.6z"/>
	<path class="st23" d="M2021.4,354.2c-7.1,2.4-16.5,2.3-27.7,2c-11.2-0.3-22.5-0.6-41,12.4l3,4.3c17.1-12.1,26.3-11.8,37.9-11.5
		c11.6,0.3,19.8,0.4,27.4-1.6C2021.1,357.9,2021.3,356,2021.4,354.2z"/>
	<path d="M2016,457.1c0.2,0,0.4-0.1,0.6-0.2c0.2-0.1,0.3-0.4,0.3-0.6c0.2-16.1-5.9-32.5-8.5-38.8c-2.7-6.5-4.4-13.4-4.9-20.4
		c-0.8-9.1-2.7-16.2-3.9-19l3.4-26.8h-1.8l-3.4,27.1v0.2c1.1,2.4,3.1,9.5,3.9,18.7c0.5,7.2,2.2,14.2,4.9,20.9
		c2.7,6.2,8.7,22.3,8.5,38c0,0.2,0.1,0.5,0.3,0.6C2015.6,457,2015.8,457.1,2016,457.1z"/>
	<path class="st49" d="M2073.8,613.1c-0.4-0.5-0.8-1-1.4-1.3c-0.6-0.3-1.2-0.5-1.8-0.5c0.6-3.6-0.1-6.6-4.8-7.7
		c-5.4-1.2-11.1-1-16.4,0.5c-9.2-23.6-27.4-85.8-40.1-131.2l-41.2-8.4c-0.4,11.3,7,36.2,12.4,57.6c5.4,21.4,17.3,66.2,20.6,82.4
		c2,9.8,4.9,21.5,4.9,21.5h38.2c11.2,0,25.6-4.4,28.4-6.6C2075.4,617.2,2074.8,614.9,2073.8,613.1z"/>
	<path class="st50" d="M2012.5,602.9c-11.8-37.2-29-87.2-39.5-138"/>
	<path class="st49" d="M1992.9,458.7c0.2-2.9-3.8-13.8-8.6-21.7c-4.8-7.9-7.2-13.5-11.7-10.9s-15,9.4-15,9.4s8.1-11.1,12.6-17.8
		c9.7-14.6,6.3-34.7-10.4-36.3c-13.7,7.6-15.8,14.1-28.8,37s-20.7,47.3-6.7,57.4c14,10.1,27.5,3.1,52.7-8
		C1987.9,463.1,1992.8,461.7,1992.9,458.7z"/>
	<path class="st23" d="M1977.2,466.3c-2.8-1.3-5.3-5.5-8.3-14.1c-5-14.5-6.3-18.9-3.2-21.9l-1.9,1.2c-0.4,0.3-0.8,0.7-1.1,1.1
		c-0.3,0.5-0.4,1-0.4,1.5c-0.1,3.8,1.8,9.4,5,18.7c2,5.8,3.8,9.7,5.7,12.1c0.7,1,1.8,1.8,3,2.1c1.2,0.3,2.5,0.2,3.6-0.3
		C1978.8,466.8,1978,466.6,1977.2,466.3z"/>
	<path class="st24" d="M1984.3,437c-4.7-7.9-7.2-13.5-11.7-10.9s-27.5,17.1-27.5,17.1"/>
	<path class="st51" d="M2036,379.5c-3.1-20.8-4.3-41.8-3.5-62.8c0-0.7-0.1-1.3-0.4-1.9c-0.3-0.6-0.7-1.1-1.2-1.6
		c-0.5-0.4-1.1-0.7-1.8-0.8c-0.7-0.1-1.3-0.1-2,0.1l-24.9,7"/>
	<path class="st10" d="M2020,381.2c2.4,4.6,6.7,12.8,7.6,15.5c0.3,4.2,0.1,11.4,0.1,13.6c0,0.2,0.1,0.4,0.2,0.6
		c0.1,0.2,0.3,0.3,0.5,0.3c6.8,1,9.7,1.1,12.5,0.8c2.8-0.3,6.7-1.6,9.4-2.4c0.3-0.1,0.5-0.3,0.6-0.6c0.1-0.3,0.1-0.6,0.1-0.9
		c-2.5-8.2-4.2-14.1-4.2-14.1c-0.5-10.2-0.6-18.3-0.6-21c0-0.3-0.1-0.5-0.3-0.7c-0.2-0.2-0.4-0.3-0.7-0.3
		c-9.3-0.6-12.5-0.6-15.9-0.4c-3.4,0.2-4.5,2.2-9.2,7.8c-0.2,0.2-0.3,0.6-0.3,0.9C2019.8,380.6,2019.9,380.9,2020,381.2z"/>
	<path class="st17" d="M2050,408.8c0,0,1.1,0.4,0.3,0.8c0.3-0.1,0.5-0.3,0.6-0.6c0.1-0.3,0.1-0.6,0.1-0.9
		c-2.5-8.2-4.2-14.1-4.2-14.1c-0.5-10.2-0.6-18.3-0.6-21c0-0.3-0.1-0.5-0.3-0.7c-0.2-0.2-0.4-0.3-0.7-0.3
		c-9.3-0.6-12.5-0.6-15.9-0.4c-0.7,0-1.4,0.2-2.1,0.5l8.8,18.6l-0.6,17.1L2050,408.8z"/>
	<path class="st6" d="M2036.5,408.3c1.7,6.1,3.2,10.4,7,11.2s8.3-3.1,14.1-8.9c5.8-5.8,3.8-10.7,1.3-15.3s-2.9-10.4-6-12.8
		c-3.8-2.8-8-5.2-12.3-7.2c-3.5-1.5-5.6-1.5-10.9,4.5c-5.3,6-8.4,9.5-7.5,11.9c0.9,2.4,2.4,5,2.4,5c-2.4,2.4-2.4,4.4-1.4,6.9
		s1.4,4.8,6.5,4.8L2036.5,408.3z"/>
	<path class="st24" d="M2024.8,395.6l14-13.2"/>
	<path class="st10" d="M2037.6,400.8c-3.1,2-6.4,3.8-9.8,5.3c-0.1,1.9-0.1,3.4-0.1,4.2c0,0.2,0.1,0.4,0.2,0.6
		c0.1,0.2,0.3,0.3,0.5,0.3c6.8,1,9.7,1.1,12.5,0.8c2.8-0.3,6.7-1.6,9.4-2.4c0.3-0.1,0.5-0.3,0.6-0.6c0.1-0.3,0.1-0.6,0.1-0.9l-0.6-2
		C2046,404.8,2041.7,403.1,2037.6,400.8z"/>
	<path class="st17" d="M2050.4,406.1c-4.5-1.2-8.8-3-12.8-5.3l-2,1.3l-0.2,5.5c0,0.1,0.1,0.1,0.1,0.2c0.1,0.1,0.1,0.1,0.2,0.1
		l14.3,0.9c0,0,1.1,0.4,0.3,0.8c0.3-0.1,0.5-0.3,0.7-0.6c0-0.1,0.1-0.3,0.1-0.4c0-0.2,0-0.3-0.1-0.5l-0.6-1.9V406.1z"/>
	<path class="st6" d="M1976.1,428.6c3.1-3.7,5.5-8,6.8-12.6c1-3,2.1-7.3,2.5-8.9s2.3-2.5,4.6-2s3.3,0.9,2.9,5s-1.3,13.8-1.3,13.8
		L1976.1,428.6z"/>
	<path class="st6" d="M2022.1,431c-1.5-4.1-2.2-6.2-3.5-7.9c-1.3-1.7-2.5-2-8.3-2.3c-2.3-0.1-6.7,0-9.6,0.1
		c5.7-1.5,11.8-2.8,13.1-3.2c1.3-0.4,3.9-0.8,3-3.3c-0.9-2.5-1.7-3.1-3.1-3.1c-3.6-0.1-7.2,0.2-10.7,0.9c-5.1,1-10.2,2.4-15.1,4.3
		c-2.9,1.2-6.6,6.6-11.8,12.1c2.3,8.1,7.8,20.5,13.4,26.4c7.4-2.9,11.8-9.3,13.6-11.7c9.3-1.6,12.5-0.6,17.7,0.1
		c3.2,0.4,3.5-1.9,3.7-3S2023.4,434.8,2022.1,431z"/>
	<path d="M1946.1,324.9c-0.3,4.2,1.1,7.7,3.1,7.9c2,0.2,3-1.4,3.1-5.3c0-1.6,0.2-3.3,0.6-4.9c0.7-3.5-0.8-4.8-2.5-4.9
		C1948.7,317.6,1946.4,320.8,1946.1,324.9z"/>
	<path class="st48" d="M1980.4,275.5c2.1-0.4,4.2-0.1,6.1,1c1.8,1,3.2,2.7,3.9,4.7c1.5,4.7,2.8,11.8-5.2,13.1
		c-3.4,0.5-6.9-1-12.3-5.2c-3.9-3.1-8.1-4.2-17.2,0.5c-4.9-3.4-2.5-12.1,10.8-7.7c-5.8-7.5-4.1-12.7,0.1-14.2
		C1970.8,266.2,1977.1,267,1980.4,275.5z"/>
	<path d="M1980.4,289.9c-2.9-3.6-5.3-8.4-7.3-12.5s-4-8.4-6.2-9.7h-0.3c-0.8,0.3-1.5,0.7-2.1,1.3l0.7-0.2c1.9,0.2,4,4.6,6.3,9.3
		c2.3,4.7,4.5,9.1,7.5,12.9c1,1.2,2.1,2.3,3.4,3.2c0.9,0.2,1.9,0.2,2.8,0.1h0.1C1983.5,293.1,1981.9,291.6,1980.4,289.9z"/>
	<path d="M1990.5,291.3c-0.4,0.6-1,1.2-1.6,1.6c-0.5-6.6-3.4-12.9-8.3-17.4c0.8-0.2,1.5-0.2,2.3-0.1
		C1987.1,279.7,1989.8,285.3,1990.5,291.3z"/>
	<path class="st27" d="M2000.7,602.3c0.1,0.8,0.3,1.5,0.4,2.2c2,9.8,4.9,21.5,4.9,21.5h38.2c11.2,0,25.6-4.4,28.4-6.6
		c2.8-2.2,2.2-4.5,1.2-6.3c-0.4-0.5-0.8-1-1.4-1.3c-0.6-0.3-1.2-0.5-1.8-0.5c0.6-3.6-0.1-6.6-4.8-7.7c-5.4-1.2-11.1-1-16.4,0.5
		c-1.4-3.7-3.1-8.3-4.9-13.6C2027.7,590.2,2010.6,588.8,2000.7,602.3z"/>
	<path class="st27" d="M2000.7,602.3c0.1,0.8,0.3,1.5,0.4,2.2c2,9.8,4.9,21.5,4.9,21.5h38.2c11.2,0,25.6-4.4,28.4-6.6
		c2.8-2.2,2.2-4.5,1.2-6.3c-0.4-0.5-0.8-1-1.4-1.3c-0.6-0.3-1.2-0.5-1.8-0.5c0.6-3.6-0.1-6.6-4.8-7.7c-5.4-1.2-11.1-1-16.4,0.5
		c-1.4-3.7-3.1-8.3-4.9-13.6C2027.7,590.2,2010.6,588.8,2000.7,602.3z"/>
	<path class="st15" d="M2049.4,604.1l-1.3,0.3h-0.2l-10.9,2.2c-0.2-0.2-0.3-0.5-0.3-0.8c-0.8-2.8-1.3-5.8-1.3-8.7
		c-0.1-6.1-3.3-6.7-8.8-6.6l0.3-0.7c0.7-1.9,2.1-3.6,3.8-4.8c1.7-1.2,3.8-1.8,5.8-1.7h9.1c0.5,0,1.1,0.1,1.5,0.4
		c0.5,0.2,0.9,0.6,1.2,1c0.3,0.4,0.6,0.9,0.7,1.4c0.1,0.5,0.2,1.1,0.1,1.6c-1.1,4.7-1.4,10.5-0.3,14.8
		C2049.1,603,2049.2,603.5,2049.4,604.1z"/>
	<path class="st2" d="M2010.8,610.2c-1.4-0.5-2.8-0.6-4.2-0.5c-1.4,0.1-2.8,0.5-4.1,1.2c0.1,0.6,0.2,1.2,0.4,1.8
		c1.1-0.7,2.3-1.1,3.6-1.3c1.3-0.2,2.5,0,3.7,0.4c5.6,1.9,9.7,9.2,11.8,14.2h1.9C2021.7,620.8,2017.3,612.4,2010.8,610.2z"/>
	<path d="M2073.5,618.5l-0.9,0.9c-2.8,2.2-17.2,6.6-28.4,6.6h-22.8v-0.4c26.2-0.4,44-11.3,50.1-11.3
		C2073.5,614.3,2074.7,617.3,2073.5,618.5z"/>
	<path class="st24" d="M2048.4,404.7c1.4,1.9,3.5,3.3,5.8,3.8"/>
	<path class="st17" d="M2004.5,397c-1,0-2-0.4-2.7-1c-0.7-0.7-1.2-1.6-1.3-2.6l-0.8-9.1h1.8l5.3,8.7c0.2,0.4,0.3,0.9,0.3,1.3
		c0,0.5-0.1,0.9-0.4,1.3s-0.6,0.7-1,1C2005.5,396.9,2005,397,2004.5,397z"/>
	<path class="st24" d="M1959.8,381.4h9.8"/>
	<path d="M2015.5,495c-1.2-4.3-3-10.4-3-10.4c8-5.2,15.7-11.1,22.9-17.4c0,0-8.3,18.4-12,35.5L2015.5,495z"/>
	<path class="st24" d="M2037.9,515.9l9.7-0.4"/>
	<path d="M2049.4,604.1l-1.3,0.3h-0.2c-4.3,1-8.6,2.3-12.8,3.9h-0.3c-0.2,0-0.3-0.1-0.5-0.2c-0.1-0.1-0.2-0.3-0.3-0.4
		c0-0.1-0.1-0.2-0.1-0.3c0-0.1,0-0.2,0.1-0.3c0-0.1,0.1-0.2,0.2-0.3c0.1-0.1,0.2-0.1,0.3-0.2l2.2-0.9c4-1.4,8.1-2.5,12.2-3.4
		C2049,602.9,2049.2,603.5,2049.4,604.1z"/>
	<path d="M2022.4,431.8l-0.3-0.8l-0.4-1c-8.7-0.9-17.8-1.5-26.7-0.6c-0.1,0-0.2,0.1-0.3,0.1c-0.1,0.1-0.2,0.1-0.3,0.2
		c-0.1,0.1-0.1,0.2-0.2,0.3c0,0.1,0,0.2,0,0.4c0,0.1,0.1,0.2,0.1,0.3c0.1,0.1,0.1,0.2,0.2,0.3c0.1,0.1,0.2,0.1,0.3,0.2
		c0.1,0,0.2,0,0.4,0C2004.2,430.2,2013.5,430.9,2022.4,431.8z"/>
	<path class="st10" d="M1954.5,320.4l-5.8,2.8l8.1,3.7L1954.5,320.4z"/>
	<path class="st10" d="M2073.5,618.5c0.6-0.8-0.1-1.3-2-1.3c-6.1,0-23.9,8.4-50.1,8.8H2006l-1.1-4.4c12,0,25.1-0.2,37.3-4.1
		c12.2-3.9,20.3-7.2,28.4-6.2c0.6,0,1.3,0.2,1.8,0.5c0.6,0.3,1,0.8,1.4,1.3c0.5,0.8,0.8,1.8,0.8,2.8S2074.2,617.7,2073.5,618.5z"/>
	<path class="st23" d="M2042.2,586.5h1.2c2.8,0,4.7,0.1,5.3,0.8c0.6,0.7,0.3,1,0.1,2c0.1-0.6,0.2-1.1,0.4-1.7
		c0.1-0.6-0.1-1.3-0.4-1.8c-0.4-0.5-0.9-0.8-1.6-0.9h-5c-4.6,0-9.8,0-12.5,5.9c0.6,0,1.2,0.1,1.8,0.3
		C2033.8,586.4,2037.9,586.5,2042.2,586.5z"/>
	<path class="st9" d="M2004.5,314.9c-1.3,2.1-3.6,4.5-8.7,5.5c7-0.8,10,3.1,10,3.1"/>
	<path class="st27" d="M1874.2,626h-66.5v-14c0-3.6,1.4-7.1,3.9-9.7l6.6-6.4c0.8-0.8,1.5-1.8,2-2.8c0.5-1.1,0.7-2.2,0.7-3.4v-16
		c0-3.2,1.1-6.3,3.1-8.8c2-2.5,4.8-4.3,7.9-5c10.7-2.7,21.8-3.2,30.9-1.4c3.2,0.7,6.1,2.4,8.2,5c2.1,2.6,3.2,5.7,3.2,9V626z"/>
	<path class="st40" d="M1824.8,599.2h0.4c0.2,0,0.3,0,0.5-0.1c0.1-0.1,0.3-0.2,0.3-0.3c3-5.8,3-14.8,3-24.4s0.9-13.2,7.3-15.6
		l-3.4,0.7c-0.9,0.2-1.7,0.6-2.4,1.1c-0.7,0.6-1.3,1.3-1.7,2.1c-1.4,2.8-1.6,6.5-1.6,11.7c0,9.4,0,18.2-2.8,23.6
		c-0.1,0.1-0.1,0.2-0.1,0.3c0,0.1,0,0.2,0,0.4c0,0.1,0.1,0.2,0.2,0.3C1824.6,599.1,1824.7,599.2,1824.8,599.2z"/>
	<path class="st5" d="M1874.2,572.5c0-3.3-1.2-6.5-3.2-9.1c-2.1-2.6-5-4.3-8.2-4.9c-5.3-0.9-10.8-1.2-16.2-0.9
		c-12.8,0.9-10.9,9-10.9,20.8v10.1c0,3.4-0.9,6.7-2.6,9.6c-1.9,3.1-2.4,6.9-2.4,14.3V626h43.6V572.5z"/>
	<path class="st38" d="M1858.2,609.9c-0.6-17.4-8.5-32.6-16.5-47.1c-0.2-0.3-0.3-0.6-0.3-1c0-0.4,0.1-0.7,0.2-1
		c0.2-0.3,0.4-0.6,0.7-0.7c0.3-0.2,0.7-0.3,1-0.3h2c0.4,0,0.8,0.1,1.2,0.4c0.4,0.2,0.7,0.5,0.9,0.8c8.2,15.1,16.8,30.8,17.4,48.9
		c0.3,9.1-6.6,16.1-15.8,16.1h-6.6C1851.6,626,1858.5,619,1858.2,609.9z"/>
	<path class="st38" d="M1877,609.9c-0.6-17.4-8.6-32.6-16.5-47.1c-0.2-0.3-0.3-0.6-0.3-1c0-0.4,0.1-0.7,0.2-1
		c0.2-0.3,0.4-0.6,0.7-0.7c0.3-0.2,0.7-0.3,1-0.3h2c0.4,0,0.8,0.1,1.2,0.3c0.4,0.2,0.6,0.5,0.8,0.9c8.3,15.1,16.8,30.8,17.5,48.9
		c0.1,2.1-0.2,4.2-1,6.2c-0.8,2-1.9,3.8-3.4,5.3s-3.3,2.7-5.2,3.5c-2,0.8-4.1,1.2-6.2,1.1h-6.6c2.1,0.1,4.2-0.3,6.2-1.1
		c2-0.8,3.7-2,5.2-3.5s2.6-3.3,3.4-5.3C1876.8,614.1,1877.1,612,1877,609.9z"/>
	<path class="st11" d="M1860.7,582.9l20.3,3.5c1.6,4.2,2.4,7,2.6,9.7c0.2,2.7-2.4,4.2-6.4,5.8c-2.9,1.2-5.5,2.9-7.8,5
		c-5.8,5.1-10.7,8.2-19.2,8.2c-1.7,0-2.9,0.1-3.9-1c-1.1-1.2-1.7-2.7-1.8-4.3c-0.1-1.6,0.4-3.2,1.3-4.5c1-1.4,2.3-2.6,3.7-3.6
		c3-2,5.6-4.6,7.5-7.6c1.9-3.1,3.1-6.5,3.5-10.1C1860.6,583.5,1860.6,583.2,1860.7,582.9z"/>
	<path d="M1877.2,601.9c1.7-0.6,3.3-1.5,4.7-2.6c1.9-1.8,1.1-3.5-3-3.4s-8.4,3.3-17,8.6c-8.6,5.3-21.4,10.6-11.7,10.6
		c9.7,0,13.4-3.1,19.2-8.2C1871.7,604.8,1874.4,603.1,1877.2,601.9z"/>
	<path class="st26" d="M1858.5,576.8c-1.5,0.3-1.3,2-0.5,3.7c-1.6,3-0.6,4.2,2.2,5.4c5.7,1.9,11.6,2.7,17.6,2.4
		c6.1-0.6,5.7-2.6,5.1-4.6c2.1-1.8,1.8-3.9-0.3-4.8C1880.5,578,1869.2,574.5,1858.5,576.8z"/>
	<path class="st10" d="M1903.6,472.4h-26.2v14.3h26.2V472.4z"/>
	<path class="st26" d="M1956.9,472.7c0.5,2,0.5,4.2,0.1,6.2c-0.4,2-1.3,4-2.6,5.6c-1.3,1.6-2.9,3-4.8,3.9c-1.9,0.9-3.9,1.4-6,1.4
		h-28.6l-13.4,7.5v-0.4c-6.1,0-9.6-2-6.9-24.4c-1.2-6.3-6.8-31.1-9.9-49.6c-2.8-16.9,3.5-23.1,20.9-32.9c7.4-22,26.6-20.7,30.3-7.5
		S1951.8,451.8,1956.9,472.7z"/>
	<path class="st23" d="M1903.2,504.4l-4.6,0.8c-0.2,0-0.4,0.1-0.6,0.3c-0.2,0.1-0.3,0.3-0.5,0.5c-0.1,0.2-0.2,0.4-0.2,0.6
		c0,0.2,0,0.5,0.1,0.7l1,2.5c-13.9,0.8-26,2-30.8,6.2c-4.8,4.2-4.8,10.6-7,29.7c-2.2,19.1-5.8,30.5,0,33.1
		c5.9,2.5,12.3,3.5,18.7,2.8c6.4-0.6,7-3.9,8.3-13.8c1.3-9.9,4.4-31.9,4.4-31.9h50.5c12.5,0,19.9-8.2,21.6-15.2
		c1.2-5-0.4-16.8-3.3-30.8h-45.9l-13.4,7.5l1,4.3L1903.2,504.4z"/>
	<path class="st52" d="M1945.3,490.1c5,25,6,43.8-13,52.4"/>
	<path class="st53" d="M1906,477.5c0,0,2.1,12.3,5,26.9c3.3,16.8,2.4,16.2-20.5,17.7c-20.1,1.3-18.3,0.3-22.5,23.2
		c-1.6,9-4.4,25.3-3.6,34.3c0,0-0.9,5.3-0.7,6.4"/>
	<path class="st9" d="M1892,535.9c-11.1-1.7-16.5-11.7-16.5-11.7"/>
	<path class="st9" d="M1892,535.9c-2.3-1.3-4.3-3.1-5.8-5.2c-1.6-2.1-2.7-4.5-3.4-7.1"/>
	<path class="st41" d="M1956.9,472.7c-2.6-10.8-7.2-30.8-11.5-49.5l-22.4-1.7l-17.3,12.2l-10,13.4l-5.1,6.9
		c1.8,8.6,3.3,15.6,3.9,18.6c-2.7,22.4,0.8,24.4,6.9,24.4l17.7-7.5l41-2.9C1959.1,482.1,1958,477.4,1956.9,472.7z"/>
	<path d="M1911.1,461.4c1.3-7.5,0.6-13.8-1.5-14.1c-2.1-0.3-4.8,5.4-6,12.9c-1.3,7.5-0.6,13.8,1.5,14.1
		C1907.2,474.7,1909.9,468.9,1911.1,461.4z"/>
	<path class="st46" d="M1898,442.9c1-1.8,2.1-3.6,3.2-5.2c11.3-16.3,21.9-20.7,32.1-20.7h12.7c0.2,0,0.4,0.1,0.5,0.1
		c0.2,0.1,0.3,0.2,0.4,0.4c0.1,0.2,0.2,0.3,0.2,0.5s0,0.4-0.1,0.6l-1.7,4.6c-19.5,0-26.4-0.6-42.6,16.4l-7.1,7.5L1898,442.9z"/>
	<path d="M1960.1,486.6H1927c-7.4,0-16.5-0.4-25.6,10.4l1.1,4.7c5.3-5.1,10.2-7.3,20.8-7.3h38.4L1960.1,486.6z"/>
	<path class="st10" d="M1902.8,440.2c-6.7,1.2-12,4.7-15,10.9c-0.9,1.7-2.1,3.2-3.6,4.4l-18,13.1c-2,1.4-3.4,3.6-4,6
		c-0.5,2.4-0.1,5,1.2,7.1c0.9,1.5,2.1,2.7,3.6,3.6c1.5,0.9,3.2,1.3,5,1.3h7.5c15.6-8.7,22.8-14.6,26.5-18c3.7-3.4,7.8-9.5,7.1-16.5
		C1912.4,445.1,1910.4,438.8,1902.8,440.2z"/>
	<path class="st26" d="M1908.4,388.5c-2.4-4-5.6-9.3-6.8-11.8c-1.2-2.5-4.1-1.9,0,9.3c-10-3.8-12.1-2.4-12.6-1s1.7,2.1,5.9,4.5
		s8.7,5.3,8.7,5.3L1908.4,388.5z"/>
	<path d="M1918.8,388.8c1.7-2.1,2.3-4.4,1.3-5.2c-1-0.8-2.1-0.4-3.6,1.6c-0.6,0.8-1.3,1.6-2.1,2.3c-1.7,1.6-1.3,2.8-0.5,3.5
		C1914.7,391.7,1917.1,390.9,1918.8,388.8z"/>
	<path class="st23" d="M1935.8,382.6c0,0-11.9-5.4-17-8.7s-7.7-8.2-5.4-9.5s6.7,1.8,9.8,5.8c-0.1-7.1,1.1-8.6,3-8.7s2.1,2.7,2.2,6.7
		s0.8,5.6,3.8,8.3C1934,378.1,1935.3,380.2,1935.8,382.6z"/>
	<path class="st10" d="M1892.1,415.8c-2.8,0-5.2-2.4-3-6.6c2.2-4.2,9.4-8.4,12.9-10c3.5-1.6,5.1,0,5.2,1.2c0.1,1.2-0.4,3-2.9,6.2
		C1901.8,409.8,1897.2,415.8,1892.1,415.8z"/>
	<path class="st15" d="M1894.3,415.5l-1.7,0.3l-2.4-8.2l1.4-1.5L1894.3,415.5z"/>
	<path class="st15" d="M1900.5,411.1l-1.4,1.4l-2.8-10.1l1.5-1L1900.5,411.1z"/>
	<path class="st15" d="M1906.1,404.1l-1.3,1.8l-2-7l1.7-0.3L1906.1,404.1z"/>
	<path class="st9" d="M1903.9,397.7c1.9,0.9,3.8,1.7,5.7,2.3"/>
	<path class="st9" d="M1901.4,509.1l11,13.4"/>
	<path class="st23" d="M1910,505.1h-3.9l-1.2-5.5l-1.1-5.1c1-1,2.1-1.9,3.2-2.8l1.3,5.6L1910,505.1z"/>
	<path class="st23" d="M1927.3,499.8h-3.9l-1.2-5.4l-1.6-7.6h3.9l1.6,7.7L1927.3,499.8z"/>
	<path class="st23" d="M1959.2,499.6h-3.9l-1.2-5.2l-1.6-7.8h3.9l1.6,7.8L1959.2,499.6z"/>
	<path class="st10" d="M1948.5,436.4c-1.9-1.5-4.3-2.4-6.7-2.5c-5.2,0-8.1,5.1-9.1,10c-0.2,0.8-0.6,1.5-1.2,2
		c-0.6,0.5-1.4,0.8-2.2,0.8h-0.7c-0.5-0.1-0.9-0.3-1.3-0.5c-0.4-0.3-0.7-0.6-1-1c-0.3-0.4-0.4-0.8-0.5-1.3c-0.1-0.5-0.1-0.9,0-1.4
		c1.9-9.5,8.1-15.6,15.9-15.6c1.3,0,2.5,0.5,3.5,1.3c1,0.8,1.7,2,2,3.2L1948.5,436.4z"/>
	<path class="st49" d="M1956.9,472.7c0.2,0.9,0.3,1.8,0.1,2.7c-0.2,0.9-0.5,1.8-1,2.6s-1.1,1.4-1.9,2c-0.8,0.5-1.6,0.9-2.5,1.1
		l-2.5,0.2c-5.7,0-11.6-3.4-16.2-9.3c-0.3-0.4-0.5-0.8-0.6-1.2c-0.1-0.4-0.1-0.9-0.1-1.4c0.1-0.5,0.2-0.9,0.5-1.3
		c0.2-0.4,0.5-0.7,0.9-1c0.4-0.3,0.8-0.5,1.2-0.6c0.4-0.1,0.9-0.1,1.4-0.1c0.5,0.1,0.9,0.2,1.3,0.5c0.4,0.2,0.7,0.6,1,0.9
		c3.2,4.1,7.1,6.6,10.6,6.6s5.6-2,7.1-4.6C1956.4,470.8,1956.7,471.8,1956.9,472.7z"/>
	<path class="st2" d="M1950.2,444.1c-0.7,0-1.4,0.2-2,0.6c-0.6,0.4-1,1-1.2,1.7l-4.2,11.3c-0.4,1.1-0.4,2.2,0,3.3
		c0.4,1.1,1.1,1.9,2.1,2.5c0.4,0.3,0.9,0.4,1.4,0.5c0.5,0.1,1,0,1.5-0.2c0.5-0.2,0.9-0.5,1.3-0.8s0.6-0.8,0.8-1.3l2.7-7.3
		C1951.9,451.1,1951.1,447.7,1950.2,444.1z"/>
	<path class="st17" d="M1944.9,463.5c-1-0.6-1.7-1.5-2.1-2.5c-0.4-1.1-0.4-2.2,0-3.3l1.2-3.1c0.2-0.5,0.5-1,0.9-1.4
		c0.4-0.4,0.9-0.7,1.4-0.9c0.5-0.2,1.1-0.3,1.7-0.2c0.6,0,1.1,0.2,1.6,0.5c0.8,0.5,1.5,1.2,1.8,2.1c0.3,0.9,0.3,1.9,0,2.8l-1.6,4.3
		c-0.2,0.5-0.4,0.9-0.8,1.3s-0.8,0.6-1.3,0.8c-0.5,0.2-1,0.2-1.5,0.2C1945.9,463.9,1945.4,463.8,1944.9,463.5z"/>
	<path class="st54" d="M1891.9,479.5c-3.2,2.2-6.8,3.8-10.6,4.7"/>
	<path class="st55" d="M1930.6,626h-17.5c-10.7,0-20.6-8.6-22.1-19.2c-1.5-10.6,5.3-16.2,16.8-18.7l2-0.5c1.6-0.3,3-1.3,4-2.6
		c0.9-1.4,1.3-3,1.1-4.7c-0.2-1.6-0.9-3.1-2.1-4.2c-1.1-1.1-2.6-1.8-4.2-2l-2.9-0.3c-12.4-1.3-20.6-8.6-22.1-19.2
		c-1.5-10.6,5.9-18.7,16.3-18.7h17.5c10.7,0,20.6,8.6,22.1,19.2l7.4,52.2C1948.3,617.6,1941,626,1930.6,626z"/>
	<path class="st10" d="M1950.9,626h-17.5c-10.7,0-20.6-8.6-22.1-19.2c-0.6-3.9,0.2-7.9,2.4-11.2c2.1-3.3,5.4-5.7,9.2-6.8
		c1.4-0.4,2.6-1.3,3.4-2.5c0.8-1.2,1.1-2.7,0.9-4.1l-0.5-3.8c-0.2-1.2-0.7-2.3-1.6-3.2c-0.8-0.9-1.9-1.5-3.1-1.8
		c-9.1-1.9-16.8-9.6-18.1-18.8s5.9-18.7,16.3-18.7h17.5c10.7,0,20.6,8.6,22.1,19.2l7.4,52.2C1968.6,617.6,1961.3,626,1950.9,626z"/>
	<path class="st26" d="M1946.5,553.5c0.1,0.5,0,1-0.1,1.5c-0.1,0.5-0.4,0.9-0.7,1.3c-0.3,0.4-0.7,0.7-1.2,0.9
		c-0.5,0.2-1,0.3-1.5,0.3h-18.4c-1.1,0-2.2-0.4-3-1.2c-0.8-0.7-1.4-1.7-1.6-2.8v-0.6c-0.1-0.5-0.1-1,0.1-1.5
		c0.1-0.5,0.4-0.9,0.7-1.3c0.3-0.4,0.7-0.7,1.2-0.9c0.5-0.2,1-0.3,1.4-0.3h18.5c1.1,0,2.2,0.4,3,1.1c0.8,0.7,1.4,1.7,1.6,2.8V553.5z
		"/>
	<path class="st26" d="M1938.5,560.9c0.1,0.5,0.1,1-0.1,1.5c-0.1,0.5-0.4,0.9-0.7,1.3c-0.3,0.4-0.7,0.7-1.2,0.9
		c-0.5,0.2-1,0.3-1.5,0.3h-0.5c-1.1,0-2.2-0.4-3-1.2c-0.8-0.7-1.4-1.7-1.6-2.8l-2.2-15.4c-0.1-0.5,0-1,0.1-1.5
		c0.1-0.5,0.4-0.9,0.7-1.3c0.3-0.4,0.7-0.7,1.2-0.9c0.5-0.2,1-0.3,1.5-0.3h0.5c1.1,0,2.2,0.4,3,1.1c0.8,0.7,1.4,1.7,1.6,2.8
		L1938.5,560.9z"/>
	<path class="st55" d="M1940.8,584.1c0,0.2,0,0.4,0,0.6c-0.1,0.2-0.2,0.4-0.3,0.5c-0.1,0.2-0.3,0.3-0.5,0.4
		c-0.2,0.1-0.4,0.1-0.6,0.2h-0.3c-0.5,0-0.9-0.2-1.2-0.5c-0.3-0.3-0.6-0.7-0.7-1.2l-0.9-6.4c0-0.2,0-0.4,0-0.6
		c0.1-0.2,0.2-0.4,0.3-0.5c0.1-0.2,0.3-0.3,0.5-0.3s0.4-0.1,0.6-0.1h0.2c0.5,0,0.9,0.2,1.2,0.4c0.3,0.3,0.6,0.7,0.7,1.2
		L1940.8,584.1z"/>
	<path class="st26" d="M1940.4,604.3c-1.1,0-2.2-0.4-3-1.1c-0.8-0.7-1.4-1.7-1.6-2.8v-0.6c-0.1-0.5-0.1-1,0.1-1.5
		c0.1-0.5,0.4-0.9,0.7-1.3s0.7-0.7,1.2-0.9c0.5-0.2,1-0.3,1.5-0.3h0.5c1.1,0,2.1,0.4,3,1.1c0.8,0.7,1.4,1.6,1.6,2.7v0.7
		c0.1,0.5,0,1-0.1,1.5c-0.1,0.5-0.4,0.9-0.7,1.3c-0.3,0.4-0.7,0.7-1.2,0.9c-0.5,0.2-1,0.3-1.5,0.3H1940.4z"/>
	<path class="st6" d="M1943,619.2h-0.5c-1.1,0-2.2-0.4-3-1.1c-0.8-0.7-1.4-1.7-1.6-2.8v-0.9c0-0.5,0-1,0.2-1.4
		c0.2-0.5,0.4-0.9,0.7-1.2c0.3-0.3,0.7-0.6,1.2-0.8c0.4-0.2,0.9-0.3,1.4-0.3h0.5c1.1,0,2.1,0.4,3,1.1c0.8,0.7,1.4,1.6,1.6,2.7v0.7
		c0.1,0.5,0.1,1-0.1,1.5s-0.4,0.9-0.7,1.3c-0.3,0.4-0.8,0.7-1.2,0.9C1944.1,619.1,1943.6,619.2,1943,619.2z"/>
	<path class="st2" d="M1940.9,604.3h-0.5c-1.1,0-2.2-0.4-3-1.1c-0.8-0.7-1.4-1.7-1.6-2.8v-0.6c-0.1-0.5-0.1-1,0.1-1.5
		c0.1-0.5,0.4-0.9,0.7-1.3s0.7-0.7,1.2-0.9c0.5-0.2,1-0.3,1.5-0.3h0.5c1.1,0,2.1,0.4,3,1.1c0.8,0.7,1.4,1.6,1.6,2.7v0.7
		c0.1,0.5,0,1-0.1,1.5c-0.1,0.5-0.4,0.9-0.7,1.3c-0.3,0.4-0.7,0.7-1.2,0.9C1941.9,604.2,1941.4,604.3,1940.9,604.3z"/>
	<path class="st26" d="M1950.4,611.7c-1.1,0-2.2-0.4-3-1.1c-0.8-0.7-1.4-1.7-1.6-2.8v-0.6c-0.1-0.5-0.1-1,0.1-1.5
		c0.1-0.5,0.4-0.9,0.7-1.3s0.7-0.7,1.2-0.9c0.5-0.2,1-0.3,1.5-0.3h0.5c1.1,0,2.1,0.4,3,1.1c0.8,0.7,1.4,1.6,1.6,2.7v0.7
		c0.1,0.5,0.1,1-0.1,1.5c-0.1,0.5-0.4,0.9-0.7,1.3s-0.7,0.7-1.2,0.9c-0.5,0.2-1,0.3-1.5,0.3H1950.4z"/>
	<path class="st2" d="M1950.9,611.7h-0.5c-1.1,0-2.2-0.4-3-1.1c-0.8-0.7-1.4-1.7-1.6-2.8v-0.6c-0.1-0.5-0.1-1,0.1-1.5
		c0.1-0.5,0.4-0.9,0.7-1.3s0.7-0.7,1.2-0.9c0.5-0.2,1-0.3,1.5-0.3h0.5c1.1,0,2.1,0.4,3,1.1c0.8,0.7,1.4,1.6,1.6,2.7v0.7
		c0.1,0.5,0.1,1-0.1,1.5c-0.1,0.5-0.4,0.9-0.7,1.3s-0.7,0.7-1.2,0.9C1951.9,611.6,1951.4,611.7,1950.9,611.7z"/>
	<path class="st6" d="M1933,611.9h-0.6c-1.1,0-2.2-0.5-3-1.2s-1.4-1.7-1.5-2.8V607c-0.1-0.5,0-1,0.1-1.4s0.4-0.9,0.7-1.2
		c0.3-0.4,0.7-0.6,1.2-0.8c0.4-0.2,0.9-0.3,1.4-0.3h0.6c1.1,0,2.1,0.5,2.9,1.2c0.8,0.7,1.4,1.7,1.6,2.7v0.6c0.1,0.5,0.1,1,0,1.5
		s-0.4,1-0.7,1.4c-0.3,0.4-0.7,0.7-1.2,0.9C1934.1,611.8,1933.6,611.9,1933,611.9z"/>
	<path class="st18" d="M1770.7,606l-9.7-5.4c7.6-12.5,16-24.6,25.1-36.1c-17.9,6.5-36.7,14.6-57.5,14.6h-34.8
		c-2.1-4.3-2.7-8.7-2.7-15.3l42.5-15.5l16.1,3.3l0.5,4.6c15.4-3.9,31.3-8.4,42.8-11.1c14.5-3.4,19.4,3.9,11,16.1
		C1787.8,584.8,1770.7,606,1770.7,606z"/>
	<path class="st21" d="M1703.4,559.8c0,8.5,0,14.5,4.1,17.9c1,0.9,2.3,1.4,3.6,1.4h4.2c-10.2-1.7-10.2-7.2-10.1-19.3V559
		c0-0.1-0.1-0.2-0.1-0.3l-1.7,0.6V559.8z"/>
	<path class="st56" d="M1770.7,601.5c15.6-20.6,25.6-34.9,29.8-41.6c4.2-6.7,5.6-10.9-15.6-3.7s-37.3,13.7-42,11.9
		c-4.7-1.8-3-6.6-2.7-15.1"/>
	<path class="st17" d="M1708.3,504.4c-7.2-11-13.1-22.8-17.6-35.2c-0.6-2.1-0.8-4.2-0.4-6.4c0.4-2.1,1.2-4.1,2.5-5.8
		c7.3-8.8,16.9-13.5,29.7-15.7c1.4-0.2,2.8,0.2,3.9,1.1c15.2,13.3,19.7,28.3,22.3,42.9c0.1,0.8-0.1,1.7-0.4,2.5
		c-0.3,0.8-0.9,1.4-1.6,1.9c-7.5,4.6-11.5,6-11.5,6l1.5,11.1L1708.3,504.4z"/>
	<path class="st17" d="M1722.8,467.1c7.5,0.7,14.9,1.8,22.3,3.4l4.1,1.1c0.2,0,0.3,0.1,0.4,0.2c0.1,0.1,0.2,0.2,0.2,0.4
		c0,0.2,0,0.3,0,0.5c0,0.2-0.1,0.3-0.2,0.4l-0.9,0.8l1.6,6.2c0.5,1.9,0.4,3.9-0.4,5.7c-0.8,1.8-2.1,3.3-3.8,4.3l-3.7,2.1
		L1722.8,467.1z"/>
	<path class="st6" d="M1726,474.5c1.9-1.3,1.5-5.2-0.8-8.6c-2.4-3.4-5.8-5.1-7.7-3.7c-1.9,1.3-1.5,5.2,0.8,8.6
		C1720.7,474.1,1724.1,475.8,1726,474.5z"/>
	<path d="M1737.8,460.6c-1.2-1.1-2.5-1.4-3-0.9s-0.2,1.3,0.9,2.1l1.3,1.3c0.9,1,1.6,0.8,2,0.3C1739.4,462.9,1739,461.6,1737.8,460.6
		z"/>
	<path class="st17" d="M1698.1,451.7c-1.6-16.1,0-21.5,3.4-26.2s5.4-3.3,4.8,2.9c-0.4,4.9-0.3,9.7,0.1,14.6
		c3-7.6,7.3-14.6,12.7-20.6c1.6-2,3.8-3.4,6.2-4.1c2.4-0.6,3.7,0.8,3,3.1c-1.2,3.9-4.1,10.1-11.9,21.2l0.8,4.4L1698.1,451.7z"/>
	<path class="st49" d="M1744.8,513.9c8.5,2.9,2.5,29.5,2.5,29.5l1.2,0.9c1,0.8,1.7,1.8,2,3c0.3,1.2,0.2,2.5-0.4,3.6l-0.4,0.7
		c-5.9,0-9.8,0.5-17.8,6.2c-8,5.7-13.1,6-21.3,6h-19.5v-6.6c-7.3-2.9-7.9-6.4-5.1-10.9c1.5-2.6,3.9-6.2,5.7-8.9
		c0.7-1,1.2-2.2,1.4-3.4c0.2-1.2,0.2-2.5,0-3.7c-1.6-8.6-0.3-13.7-0.3-13.7l21.2-5.7l26.9-1.1L1744.8,513.9z"/>
	<path d="M1744.2,538.4c2.6-0.7,3.5-5.7,2-11.2c-1.5-5.5-4.7-9.4-7.3-8.7s-3.5,5.7-2,11.2C1738.4,535.2,1741.7,539.1,1744.2,538.4z"
		/>
	<path class="st10" d="M1757.2,601.2c2.4-2.5,7.6-6.7,7.6-6.7c3.3,0,8.3,0.6,10.5,9.7l2.7,10.7c10.3,1.9,10.4,4.8,9,8.6v1.7
		c0,0.2-0.1,0.4-0.2,0.6c-0.2,0.2-0.4,0.2-0.6,0.2H1769L1757.2,601.2z"/>
	<path class="st6" d="M1786.2,626c0.2,0,0.4-0.1,0.6-0.2c0.2-0.1,0.2-0.4,0.2-0.6v-1.7c-6.8,0-11.8,0.7-14.3-3.7
		c-2.7-5.3-5.1-10.8-7.1-16.4c-0.9-2.6-2.8-5.7-5.7-4.8l-2.7,2.6L1769,626H1786.2z"/>
	<path d="M1778.9,626c-1.8,0-3.6-0.4-5.2-1.3c-1.6-0.9-2.9-2.1-3.9-3.6c-3.7-5.6-6-12.3-7.4-16.4c-1.4-4.1-5.9-5.7-6.3-0.5
		c-0.4,5.2,2.3,9.2,6.5,19.6c0.2,0.7,0.7,1.2,1.2,1.6c0.6,0.4,1.3,0.6,2,0.6H1778.9z"/>
	<path class="st17" d="M1744.8,513.9l15.8,5.4c1.6-22.1,8.3-28.4,16.1-46c5.6-12.5,8.2-18.2,9.3-20.4c0.2-0.4,0.4-0.7,0.8-0.9
		c0.3-0.2,0.7-0.3,1.1-0.3h0.6c0.3,0,0.6,0.1,0.9,0.2c0.3,0.1,0.5,0.3,0.7,0.5c0.2,0.2,0.4,0.5,0.5,0.8c0.1,0.3,0.1,0.6,0.1,0.9
		c-1,5.9-2.6,11.7-4.7,17.3c4.7-3.2,6.8-3.2,9,0.1c5.4-2.8,7.4-2.9,9.3,1.3c1.9,4.2,1.6,5,0.6,8.4c-1,3.4-2.5,3.7-4.8,3.7
		c0,23.2-1.5,31.9-12.4,47.5c-9.7,13.9-10.2,12.2-23.4,8c-7.6-2.4-15.1-5.1-20-7c-2.8-1-5.2-3-6.7-5.6c-1.5-2.6-2.1-5.7-1.6-8.7
		C1736.9,514.9,1739.7,512.2,1744.8,513.9z"/>
	<path class="st10" d="M1744.8,513.9c0.5-0.6,1-1.3,1.5-2c0.3-0.4,0.5-0.8,0.5-1.2c0.1-0.4,0.1-0.9,0-1.4c-0.1-0.4-0.3-0.9-0.6-1.2
		c-0.3-0.4-0.6-0.7-1-0.9c-27.3-15-36.9-16.8-51.9-16.8c-9.7,0-9.2,2.5-8.3,7.1c-6.9,6.4-6.8,8.6-2,14.9c4.8,6.3,6.3,8.8,10.8,8.8
		s15,0.1,24.2-4.6C1727.2,511.9,1731.6,509.5,1744.8,513.9z"/>
	<path d="M1744.4,468.6c-11.1-1.9-22.4-3.1-22.5-3.1c-0.1,0-0.2,0-0.3,0c-0.1,0-0.2,0.1-0.3,0.2c-0.1,0.1-0.2,0.2-0.2,0.3
		c0,0.1-0.1,0.2-0.1,0.3c0,0.2,0,0.5,0.2,0.6c0.1,0.2,0.3,0.3,0.5,0.4c0.2,0,12,1.2,23.4,3.2
		C1744.9,469.9,1744.7,469.3,1744.4,468.6z"/>
	<path class="st9" d="M1722.1,465c-0.6,0.9-1.1,1.8-1.6,2.7"/>
	<path class="st9" d="M1760.6,519.3l6.6,1.9"/>
	<path class="st7" d="M1703.7,450.3c-0.1,0.4-0.2,0.7-0.4,1.1c-0.1,0.2-0.2,0.3-0.3,0.4c-0.1,0.1-0.3,0.2-0.5,0.2h-0.3
		c-0.1,0-0.2-0.1-0.3-0.2c-0.1-0.1-0.2-0.2-0.2-0.3c0-0.1-0.1-0.2-0.1-0.3c0-0.1,0-0.2,0.1-0.3c0.1-0.3,2.2-6.5,4.1-10.9
		c0.1-0.2,0.2-0.3,0.4-0.4c0,1.2,0.1,2.3,0.2,3.5C1706.5,444.3,1704.3,448.5,1703.7,450.3z"/>
	<path class="st39" d="M1797.1,514.6c0.4-1.1,0.5-2.2,0.3-3.3c-0.2-1.1-0.6-2.2-1.2-3.1c-0.4-0.5-0.9-1-1.5-1.4
		c-1.2-0.7-2.7-1.1-4.1-1c-1.4,0.1-2.8,0.5-4,1.3c0.6-3.4,1.4-9.6,0.8-14.3c-0.6-4.7-2.4-4.1-3.5-4.3c-3.2-0.6-7.6,2.8-11.5,8.9
		c-0.7-3.3-1.7-4.9-3.3-5.3c-0.4-0.1-0.9,0-1.3,0.2c-0.4,0.2-0.7,0.5-0.9,0.9l-1.5,3.6c2-3,3.1-3,3.4-3c0.3,0,1.6,0.8,2.3,6.2
		c0,0.2,0.1,0.3,0.2,0.5c0.1,0.1,0.3,0.2,0.5,0.2c0.2,0,0.4,0,0.6-0.1c0.2-0.1,0.3-0.2,0.4-0.3c4.1-7.5,8.5-10.5,10.8-10.1
		c2.3,0.4,1.9,1.7,2,2.9c0.9,6.1-1.1,15.8-1.1,15.9c0,0.2,0,0.4,0.1,0.5c0.1,0.2,0.2,0.3,0.3,0.4c0.2,0.1,0.4,0.1,0.6,0.1
		c0.2,0,0.4-0.1,0.5-0.2c2.2-2.3,5.6-2.9,7.7-1.5c2.1,1.4,3.1,6.5,0.8,12.8C1795.6,519,1796.5,516.8,1797.1,514.6z"/>
	<path class="st57" d="M1780.5,473.7c3.4-1.9,4.6-3,7.6,0c4-2.1,4.8-2.1,7,1.1"/>
	<path d="M1801.9,484.5c-0.1-2.8-0.4-7.1-0.5-7.2c0-0.1,0-0.2-0.1-0.3s-0.1-0.2-0.2-0.3c-0.1-0.1-0.2-0.1-0.3-0.2
		c-0.1,0-0.2,0-0.3,0c-0.1,0-0.2,0-0.3,0.1s-0.2,0.1-0.3,0.2c-0.1,0.1-0.1,0.2-0.2,0.3c0,0.1,0,0.2,0,0.3c0,0.1,0.4,4.4,0.4,7.2
		c0,0.1,0,0.1,0,0.2c0,0.1,0,0.1,0.1,0.1h1.6L1801.9,484.5z"/>
	<path d="M1803,481.1h-2.2c-0.1,0-0.2,0-0.3-0.1c-0.1,0-0.2-0.1-0.3-0.2c-0.1-0.1-0.2-0.2-0.2-0.3c0-0.1-0.1-0.2-0.1-0.3
		c0-0.2,0.1-0.4,0.3-0.6c0.2-0.1,0.4-0.2,0.6-0.2h2.2c0.2,0,0.4,0.1,0.6,0.2c0.2,0.1,0.3,0.4,0.3,0.6c0,0.1,0,0.2-0.1,0.3
		c0,0.1-0.1,0.2-0.2,0.3c-0.1,0.1-0.2,0.1-0.3,0.2C1803.3,481.1,1803.2,481.1,1803,481.1z"/>
	<path class="st57" d="M1771.8,539c2.1-0.1,4.2-0.3,6.3-0.6"/>
	<path d="M1707.8,560.8c-11.4-1.4-16.5-3.5-16.6-3.5h-0.1v1.8c1.7,0.6,6.8,2.2,16.5,3.5h0.1c0.2,0,0.4-0.1,0.6-0.2
		c0.2-0.1,0.3-0.4,0.3-0.6c0-0.1,0-0.2,0-0.4c0-0.1-0.1-0.2-0.2-0.3c-0.1-0.1-0.2-0.2-0.3-0.2C1708.1,560.8,1708,560.8,1707.8,560.8
		z"/>
	<path class="st9" d="M1750.2,556.2c-2.6,0.8-4.9,2.3-6.7,4.2"/>
	<path class="st9" d="M1787,564.5c4-1.8,8-3.9,11.7-6.2"/>
	<path class="st9" d="M1789,563.6l5.3,0.2"/>
	<path class="st58" d="M1685.9,497c16.6-1.6,28.4,2.2,44.7,9.5c-16.3-1.1-35.5-1.7-35.5-1.7"/>
	<path class="st15" d="M1681.4,579.1h66.6c1,0,1.9,0.4,2.5,1.1c0.7,0.7,1.1,1.6,1.1,2.5V626h-73.8v-43.3c0-1,0.4-1.9,1.1-2.5
		C1679.6,579.5,1680.5,579.1,1681.4,579.1z"/>
	<path class="st27" d="M1745,579.1h3c1,0,1.9,0.4,2.5,1.1c0.7,0.7,1.1,1.6,1.1,2.5V626h-10.2v-43.3c0-0.5,0.1-0.9,0.3-1.4
		c0.2-0.4,0.4-0.8,0.8-1.2c0.3-0.3,0.7-0.6,1.2-0.8C1744.1,579.2,1744.6,579.1,1745,579.1z"/>
	<path class="st27" d="M1687.6,612.2h44c0.8,0,1.6,0.3,2.1,0.9c0.6,0.6,0.9,1.3,0.9,2.1V626h-49.9v-10.8c0-0.8,0.3-1.5,0.8-2.1
		C1686.1,612.5,1686.9,612.2,1687.6,612.2z"/>
	<path class="st59" d="M1689.6,579.1V626"/>
	<path class="st59" d="M1729.5,579.1V626"/>
	<path d="M1732,582.7h-44.9c-1.4,0-2.5,1.1-2.5,2.5v16c0,1.4,1.1,2.5,2.5,2.5h44.9c1.4,0,2.5-1.1,2.5-2.5v-16
		C1734.5,583.8,1733.4,582.7,1732,582.7z"/>
	<path class="st2" d="M1740.5,586.1c-0.1,0-0.3,0-0.4,0c-0.1,0-0.2,0.1-0.3,0.2c-0.1,0.1-0.2,0.2-0.2,0.3c0,0.1-0.1,0.3,0,0.4
		c0,0.3,0.1,0.5,0.3,0.7c0.2,0.2,0.4,0.3,0.7,0.3h11.1v-2H1740.5z"/>
	<path class="st2" d="M1739.5,591.4c0,0.1,0,0.3,0,0.4c0,0.1,0.1,0.2,0.2,0.3c0.1,0.1,0.2,0.2,0.3,0.2c0.1,0,0.3,0.1,0.4,0h11.1v-2
		h-11.1c-0.3,0-0.5,0.1-0.7,0.3C1739.6,590.9,1739.5,591.1,1739.5,591.4z"/>
	<path class="st2" d="M1739.5,595.8c0,0.3,0.1,0.5,0.3,0.7c0.2,0.2,0.4,0.3,0.7,0.3h11.1v-2h-11.1c-0.1,0-0.3,0-0.4,0
		c-0.1,0-0.2,0.1-0.3,0.2c-0.1,0.1-0.2,0.2-0.2,0.3C1739.5,595.5,1739.5,595.7,1739.5,595.8z"/>
	<path class="st2" d="M1679.6,587.1c0,0.3-0.1,0.5-0.3,0.7c-0.2,0.2-0.4,0.3-0.7,0.3h-0.8v-2h0.8c0.3,0,0.5,0.1,0.7,0.3
		C1679.5,586.6,1679.6,586.8,1679.6,587.1z"/>
	<path class="st2" d="M1679.6,591.4c0,0.3-0.1,0.5-0.3,0.7c-0.2,0.2-0.4,0.3-0.7,0.3h-0.8v-2h0.8c0.3,0,0.5,0.1,0.7,0.3
		S1679.6,591.1,1679.6,591.4z"/>
	<path class="st2" d="M1679.6,595.8c0,0.3-0.1,0.5-0.3,0.7c-0.2,0.2-0.4,0.3-0.7,0.3h-0.8v-2h0.8c0.3,0,0.5,0.1,0.7,0.3
		C1679.5,595.3,1679.6,595.5,1679.6,595.8z"/>
	<path class="st39" d="M1719.2,584.2h-29.3c-0.7,0-1.3,0.6-1.3,1.3v13.9c0,0.7,0.6,1.3,1.3,1.3h29.3c0.7,0,1.3-0.6,1.3-1.3v-13.9
		C1720.5,584.8,1720,584.2,1719.2,584.2z"/>
	<path class="st6" d="M1731.6,600.7h-8c-0.5,0-0.9,0.4-0.9,0.9v1.2c0,0.5,0.4,0.9,0.9,0.9h8c0.5,0,0.9-0.4,0.9-0.9v-1.2
		C1732.5,601.1,1732.1,600.7,1731.6,600.7z"/>
	<path class="st18" d="M1700.4,586.1c0,2.4,1,4.8,2.7,6.5c1.7,1.7,4.1,2.7,6.5,2.7c2.4,0,4.8-1,6.5-2.7c1.7-1.7,2.7-4.1,2.7-6.5
		c0-0.6-0.1-1.3-0.2-1.9h-18C1700.5,584.8,1700.4,585.5,1700.4,586.1z"/>
	<path class="st18" d="M1691.3,600.7h15c-0.9-1.2-2-2.2-3.3-2.8c-1.3-0.7-2.8-1-4.2-1s-2.9,0.4-4.2,1
		C1693.3,598.5,1692.2,599.5,1691.3,600.7z"/>
</g>
</svg>
